<?xml version="1.0" encoding="utf-8"?>
<!-- Generator: Adobe Illustrator 22.0.1, SVG Export Plug-In . SVG Version: 6.00 Build 0)  -->
<svg version="1.1" id="Layer_1" xmlns="http://www.w3.org/2000/svg" xmlns:xlink="http://www.w3.org/1999/xlink" x="0px" y="0px"
	 viewBox="0 0 792 612" style="enable-background:new 0 0 792 612;" xml:space="preserve">
<style type="text/css">
	.st0{clip-path:url(#SVGID_2_);}
	.st1{fill:#FDFDFD;}
	.st2{fill:#010204;}
	.st3{fill:#4BBEF7;}
</style>
<g>
	<defs>
		<rect id="SVGID_1_" x="176" y="192" width="450" height="181"/>
	</defs>
	<clipPath id="SVGID_2_">
		<use xlink:href="#SVGID_1_"  style="overflow:visible;"/>
	</clipPath>
	<g class="st0">
		<path class="st1" d="M627,345c0,9.7,0,19.3,0,29c-102.7,0-205.3,0-308,0c3.2-5.1,7.9-8.9,12-13.2c2-2.1,2.5-3.3,0.1-5.6
			c-11.4-11.4-22.7-23-34-34.6c-2.4-2.5-4.7-4.9-8.6-2.6c-1.3,0.8-2.1,0-3-0.9c-3.1-3.1-6.3-6.1-10.5-10.1c8.1,0,14.9,0,21.9,0
			c0-13.2,0-25.9,0-39c11.5,0,22.6,0,33.8,0c-0.7-5.6-1.6-10.8-1.8-16c-0.1-3.8-1.1-5.2-5.2-5.1c-8.9,0.3-17.8,0.1-26.6,0.1
			c0-7.4,0-14.1,0-21.2c13.8,0,27.2,0,40.7,0c0-7.2-1.3-14-2.3-20.5c-22.1,0-43.9,0-65.8,0c0,4.5,0,8.6,0,12.8c0,4.2,0,8.5,0,13.1
			c-20.7-12.8-28.5-15.9-40.1-15.1c-15,1.1-28,6.8-37.9,18.4c-17.2,20.2-18.9,49-1,71.6c8.1,10.1,18.8,16.4,31.4,18.6
			c16.2,2.8,31.2-1.1,44.3-11.8c3.9,4,7.4,7.7,11,11.4c1,1.1,2.3,2.1,1.3,3.8c-2.1,3.5,0,6,2.3,8.3c11.1,11.3,22.2,22.6,33.2,33.9
			c1,1,3,1.6,2.5,3.8c-46.6,0-93.3,0-140,0c0-60.3,0-120.6,0-180.9c150,0,300,0,450,0c0,50.3,0,100.6,0,150.9
			c-4.7-4.1-7.4-9.7-11-14.6c-5.8-7.9-11.3-16-16.8-23.9c1.3-1.6,2.6-1.3,3.7-1.6c9.9-2.4,19-7.6,18.1-21.6c-0.3-4.1,0-8.3,0-12.5
			c0-11.3-5-17.3-16.1-19.9c-13.8-3.2-27.8-1.6-41.7-1.9c0-15.6,0-31.2,0-46.8c-9.5-1.1-18.1,1.5-27.2,0.7c0,11.2,0,21.9,0,33
			c-2.4-0.7-4.4-1.5-6.5-1.9c-12.6-2.5-24.8-2-34.2,8.2c-11.2,12.3-12.5,27-8.7,42.4c3.1,12.4,10.3,21,23.5,23.6
			c10.9,2.1,21.2,1.3,30.7-5c0,14.2,0,28.4,0,42.5c8.2,0,15.4,0,23.1,0c0-2.1,0-3.9,0-5.7c0-9.5,0-19,0-28.5c0-1.6-0.4-3.3,1.8-4.1
			c4-1.3,8.8,0.2,11.2,3.8c6.8,10.2,13.7,20.4,20.4,30.8c1.9,3,3.9,4.3,7.6,4.1C612.3,344.8,619.7,345,627,345z M472,306.8
			c0-17.1,0.6-34-0.2-50.7c-0.5-12.2-8.5-23.6-24.2-24.2c-9.8-0.3-19,1.2-27.5,6c-4,2.2-6.8,2.6-9.4-1.6c-0.7-1.1-1.7-2.4-3.6-2.3
			c-3.9,0.1-7.9,0-11.7,0c0,24.6,0,48.7,0,72.7c9,0,17.8,0,26.7,0c0-14.8,0.2-29.3-0.1-43.7c-0.1-4.3,1.5-5.8,5.2-7.4
			c11.4-4.8,19.1-2.2,18.4,12.5c-0.7,12.8-0.1,25.6-0.1,38.6C454.4,306.8,463,306.8,472,306.8z M375.8,306.9c0-24.5,0-48.6,0-72.6
			c-9,0-17.8,0-26.4,0c0,24.4,0,48.4,0,72.6C358.2,306.9,366.9,306.9,375.8,306.9z M377.2,209.2c0.5-8.4-6.3-14.8-14.2-15.2
			c-7.5-0.4-14.8,7-15,14.7c-0.2,7.8,6.7,14.7,14.7,14.6C371.1,223.3,377.1,217.5,377.2,209.2z"/>
		<path class="st2" d="M317,374c0.5-2.1-1.5-2.7-2.5-3.8c-11-11.3-22.2-22.6-33.2-33.9c-2.3-2.3-4.3-4.7-2.3-8.3
			c1-1.7-0.2-2.7-1.3-3.8c-3.6-3.7-7.2-7.4-11-11.4c-13.1,10.8-28.1,14.6-44.3,11.8c-12.6-2.1-23.3-8.4-31.4-18.6
			c-18-22.6-16.2-51.5,1-71.6c9.9-11.6,22.9-17.4,37.9-18.4c11.6-0.8,19.4,2.3,40.1,15.1c0-4.6,0-8.8,0-13.1c0-4.2,0-8.3,0-12.8
			c21.9,0,43.6,0,65.8,0c1,6.6,2.3,13.3,2.3,20.5c-13.5,0-27,0-40.7,0c0,7.1,0,13.8,0,21.2c8.8,0,17.7,0.2,26.6-0.1
			c4.1-0.1,5.1,1.2,5.2,5.1c0.2,5.2,1.1,10.4,1.8,16c-11.2,0-22.3,0-33.8,0c0,13.1,0,25.8,0,39c-7.1,0-13.8,0-21.9,0
			c4.1,4,7.3,7,10.5,10.1c0.9,0.9,1.7,1.6,3,0.9c3.8-2.3,6.2,0.2,8.6,2.6c11.3,11.6,22.5,23.2,34,34.6c2.3,2.3,1.9,3.5-0.1,5.6
			c-4.1,4.3-8.8,8-12,13.2C318.3,374,317.7,374,317,374z M264.9,269.9c-12,12-24.2,24.2-36.3,36.4c-1.3-0.6-2.2-1.3-2.7-3.5
			c11.9-11.8,24.2-24,36.4-36.1c0.1-1.6-3.3-2.4-1.1-4.1c1.7-1.3,2.6,0.9,3.5,1.9c1.4,1.5,2.5,3.3,3.7,5c0.5-0.4,1-0.8,1.5-1.2
			c0-4.3-0.2-8.6,0.1-12.8c0.3-4.5-1.3-8-3.9-11.5c-12.4-16.1-33.9-21.4-51.9-12.9c-18.8,8.9-28.7,30.1-23.7,50.5
			c4.8,19.4,22.8,33.4,42.4,33c11.7-0.3,21.3-5.1,30-12.9c7.6-6.9,7.3-15.4,7.3-24.3C270,273.6,269.1,271.2,264.9,269.9z"/>
		<path class="st3" d="M563.2,248c13.9,0.3,27.9-1.3,41.7,1.9c11.1,2.6,16.1,8.6,16.1,19.9c0,4.2-0.2,8.3,0,12.5
			c0.9,14-8.2,19.2-18.1,21.6c-1.1,0.3-2.4,0-3.7,1.6c5.5,7.9,11,16,16.8,23.9c3.6,4.9,6.3,10.5,11,14.6c0,0.3,0,0.7,0,1
			c-7.3,0-14.7-0.2-22,0.1c-3.6,0.2-5.7-1.1-7.6-4.1c-6.7-10.3-13.6-20.5-20.4-30.8c-2.4-3.6-7.3-5.2-11.2-3.8
			c-2.2,0.7-1.8,2.5-1.8,4.1c0,9.5,0,19,0,28.5c0,1.8,0,3.6,0,5.7c-7.6,0-14.9,0-23.1,0c0-14.1,0-28.3,0-42.5
			c1.2-0.9,2.3-1.8,3.5-2.7c6.3,8.4,7.8,8.9,18.8,6.9c0-5,0-10.1,0-15.2c9.8,1.4,19.5,1,29.2-0.5c3.1-0.5,5.1-2.9,5.6-6.2
			c0.7-4.5,0.9-8.9,0.1-13.3c-0.5-2.9-2.1-5.1-4.8-5.7c-10-2.1-20-1.8-30-0.5C563.2,259.2,563.2,253.6,563.2,248z"/>
		<path class="st2" d="M563.2,291.1c0,5.1,0,10.2,0,15.2c-11.1,2.1-12.6,1.5-18.8-6.9c-1.2,0.9-2.3,1.8-3.5,2.7
			c-9.5,6.4-19.8,7.2-30.7,5c-13.2-2.6-20.4-11.2-23.5-23.6c-3.9-15.4-2.6-30.2,8.7-42.4c9.4-10.2,21.6-10.7,34.2-8.2
			c2.1,0.4,4,1.2,6.5,1.9c0-11,0-21.8,0-33c9.1,0.8,17.7-1.8,27.2-0.7c0,15.6,0,31.2,0,46.8c0,5.6,0,11.2,0,16.8
			C563.2,273.6,563.2,282.4,563.2,291.1z M536,271.2c0-3-0.3-6,0.1-9c0.4-3.5-1.1-5.4-4.2-6.9c-8.9-4.2-15.6-2.4-18.3,8.6
			c-2.9,12,2.4,25.2,17.7,22c3.1-0.7,5.4-1.7,4.8-5.8C535.6,277.2,536,274.2,536,271.2z"/>
		<path class="st2" d="M472,306.8c-9,0-17.6,0-26.6,0c0-13-0.5-25.9,0.1-38.6c0.8-14.8-6.9-17.3-18.4-12.5c-3.8,1.6-5.3,3.1-5.2,7.4
			c0.3,14.5,0.1,29,0.1,43.7c-8.9,0-17.7,0-26.7,0c0-24,0-48.1,0-72.7c3.9,0,7.8,0.1,11.7,0c1.9-0.1,2.8,1.1,3.6,2.3
			c2.6,4.2,5.5,3.8,9.4,1.6c8.5-4.8,17.7-6.4,27.5-6c15.7,0.5,23.7,12,24.2,24.2C472.6,272.8,472,289.6,472,306.8z"/>
		<path class="st2" d="M375.8,306.9c-8.9,0-17.5,0-26.4,0c0-24.2,0-48.2,0-72.6c8.7,0,17.4,0,26.4,0
			C375.8,258.3,375.8,282.4,375.8,306.9z"/>
		<path class="st2" d="M377.2,209.2c-0.1,8.2-6.1,14.1-14.5,14.1c-8,0-14.9-6.8-14.7-14.6c0.2-7.7,7.5-15.1,15-14.7
			C370.9,194.4,377.7,200.8,377.2,209.2z"/>
		<path class="st1" d="M264.9,269.9c4.2,1.3,5.1,3.7,5.1,7.5c0,8.9,0.3,17.4-7.3,24.3c-8.6,7.9-18.3,12.6-30,12.9
			c-19.6,0.5-37.6-13.6-42.4-33c-5-20.4,5-41.6,23.7-50.5c18.1-8.6,39.6-3.2,51.9,12.9c2.6,3.4,4.2,7,3.9,11.5
			c-0.3,4.3-0.1,8.6-0.1,12.8c-0.5,0.4-1,0.8-1.5,1.2c-1.2-1.7-2.3-3.5-3.7-5c-0.9-0.9-1.7-3.2-3.5-1.9c-2.3,1.7,1.2,2.5,1.1,4.1
			c-12.2,12.1-24.5,24.3-36.4,36.1c0.5,2.2,1.4,2.9,2.7,3.5C240.7,294.1,252.9,281.9,264.9,269.9z M258,259.2
			c-0.4-2.8-2.1-4.8-4.5-6c-2.5-1.2-4.8-0.2-6.7,1.8c-10.2,10.3-20.5,20.5-30.7,30.8c-2.8,2.8-3.8,5.9-0.7,9.2
			c2.9,3.1,5.8,3,9.4-0.6c10.3-10.2,20.5-20.5,30.8-30.7C256.7,262.4,257.7,261.1,258,259.2z M223.9,250.7c3.7-3.5,7.2-6.6,10.4-10
			c2.3-2.4,1.9-5.1-0.4-7.5c-2-2.2-4.6-3.5-7-1.5c-5.3,4.3-11.3,8.6-12.5,15.6c-1.7,10-8.2,16.4-14.9,22.8c-1,0.9-2,2.6-3.7,1
			c-1.8-1.8-0.3-3,0.9-4.2c4.1-4.1,8.3-8.2,12.4-12.2c-0.6-1.5-1.3-2.5-2.9-2.7c-4.2,4.2-8.5,8.4-12.6,12.7c-2.3,2.3-2.5,5-0.5,7.6
			c1.9,2.5,4.7,4.1,7.3,1.9c6.9-5.7,14.6-11.1,16.5-20.5c1.5-7.5,5.5-13,10.9-17.8c1-0.9,2-2.6,3.7-1.1c1.8,1.6,0.5,3-0.7,4.2
			c-3.1,3-6.3,5.9-9.3,8.6C222.2,249.5,222.9,250.4,223.9,250.7z M203.8,281.9c3.3-3.4,6.3-6.5,9.3-9.6c3-3.1,6-6.2,9-9.3
			c7,5,7,5,13-1c2.9-2.9,5.8-6,8.8-8.8c3.2-3,3.3-5.9,0.4-9c-1.3-1.4-2.7-2.8-3.4-3.6c-13.3,13.1-26.4,26-39.5,39
			C202,280.2,202.7,280.9,203.8,281.9z"/>
		<path class="st1" d="M563.2,291.1c0-8.8,0-17.5,0-26.3c10-1.4,20.1-1.7,30,0.5c2.7,0.6,4.2,2.8,4.8,5.7c0.8,4.5,0.6,8.9-0.1,13.3
			c-0.5,3.4-2.5,5.7-5.6,6.2C582.7,292.1,573,292.5,563.2,291.1z"/>
		<path class="st1" d="M536,271.2c0,3-0.4,6,0.1,9c0.6,4.1-1.7,5.1-4.8,5.8c-15.3,3.2-20.6-9.9-17.7-22c2.7-11,9.4-12.9,18.3-8.6
			c3,1.4,4.5,3.4,4.2,6.9C535.7,265.2,536,268.2,536,271.2z"/>
		<path class="st2" d="M258,259.2c-0.3,1.9-1.3,3.2-2.5,4.4c-10.2,10.3-20.4,20.6-30.8,30.7c-3.7,3.6-6.5,3.7-9.4,0.6
			c-3.1-3.3-2.1-6.4,0.7-9.2c10.2-10.3,20.5-20.5,30.7-30.8c2-2,4.2-3,6.7-1.8C255.9,254.4,257.6,256.4,258,259.2z M219.3,293.5
			c0.6-0.4,1.3-0.7,1.9-1.3c10.6-10.5,21.2-21.1,31.7-31.7c1.2-1.2,1.8-2.4,0.3-3.8c-1.5-1.4-2.4-0.1-3.3,0.8
			c-10.5,10.4-20.9,20.9-31.4,31.4c-0.6,0.6-1.2,1.2-1.4,2C216.7,292.4,217.4,293.3,219.3,293.5z"/>
		<path class="st2" d="M223.9,250.7c-1.1-0.4-1.7-1.2-2.5-3.2c2.9-2.7,6.1-5.6,9.3-8.6c1.2-1.2,2.5-2.5,0.7-4.2
			c-1.7-1.5-2.7,0.2-3.7,1.1c-5.4,4.9-9.4,10.3-10.9,17.8c-1.9,9.4-9.6,14.8-16.5,20.5c-2.6,2.1-5.4,0.6-7.3-1.9
			c-1.9-2.6-1.7-5.3,0.5-7.6c4.2-4.3,8.4-8.5,12.6-12.7c1.6,0.2,2.3,1.2,2.9,2.7c-4.1,4-8.3,8.1-12.4,12.2c-1.1,1.1-2.7,2.4-0.9,4.2
			c1.7,1.6,2.8,0,3.7-1c6.7-6.4,13.2-12.8,14.9-22.8c1.2-7,7.2-11.3,12.5-15.6c2.4-2,5-0.7,7,1.5c2.3,2.4,2.7,5.1,0.4,7.5
			C231.2,244.1,227.7,247.2,223.9,250.7z"/>
		<path class="st2" d="M203.8,281.9c-1.2-1.1-1.9-1.7-2.4-2.2c13.1-13,26.2-25.9,39.5-39c0.7,0.8,2.1,2.2,3.4,3.6
			c2.8,3.1,2.8,6-0.4,9c-3.1,2.8-5.9,5.9-8.8,8.8c-5.9,5.9-6,5.9-13,1c-3,3.1-6,6.2-9,9.3C210.2,275.4,207.1,278.5,203.8,281.9z
			 M225,261c1.5,2.2,3.1,2.6,5.1,0.5c3.7-3.8,7.5-7.6,11.3-11.3c2.2-2.1,1.8-3.6-0.2-4.9C235.8,250.6,230.4,255.7,225,261z"/>
		<path class="st1" d="M219.3,293.5c-1.9-0.1-2.6-1.1-2.1-2.6c0.2-0.7,0.9-1.4,1.4-2c10.4-10.5,20.9-20.9,31.4-31.4
			c0.9-0.9,1.8-2.2,3.3-0.8c1.5,1.4,0.9,2.6-0.3,3.8c-10.6,10.6-21.2,21.1-31.7,31.7C220.6,292.8,219.9,293.1,219.3,293.5z"/>
		<path class="st1" d="M225,261c5.4-5.2,10.8-10.4,16.2-15.7c2,1.3,2.4,2.8,0.2,4.9c-3.8,3.7-7.6,7.5-11.3,11.3
			C228.1,263.6,226.6,263.2,225,261z"/>
	</g>
</g>
</svg>
