<?xml version="1.0" encoding="utf-8"?>
<!-- Generator: Adobe Illustrator 22.0.1, SVG Export Plug-In . SVG Version: 6.00 Build 0)  -->
<svg version="1.1" id="Layer_1" xmlns="http://www.w3.org/2000/svg" xmlns:xlink="http://www.w3.org/1999/xlink" x="0px" y="0px"
	 viewBox="0 0 792 612" style="enable-background:new 0 0 792 612;" xml:space="preserve">
<style type="text/css">
	.st0{fill:#FEFEFE;}
	.st1{fill:#000204;}
	.st2{fill:#00BDFE;}
	.st3{fill:#01BDFE;}
	.st4{fill:#149CCC;}
	.st5{fill:#FDFDFD;}
	.st6{fill:#020304;}
	.st7{fill:#CFCFCF;}
	.st8{fill:#030405;}
	.st9{fill:#FAFAFA;}
	.st10{fill:#F6F6F6;}
</style>
<g>
	<path class="st0" d="M428.2,291.7c80.2,0,160.3,0,240.5-0.1c3.3,0,4.4,0.4,4.4,4.1c-0.2,71.8-0.2,143.6,0,215.4
		c0,3.5-0.9,3.9-4.1,3.9c-160.7-0.1-321.3-0.1-482,0c-3.2,0-4.2-0.4-4.1-3.9c0.1-72,0.1-143.9,0-215.9c0-3.3,1-3.7,3.9-3.7
		C267.2,291.7,347.7,291.7,428.2,291.7z"/>
	<path class="st1" d="M562.7,423.8c-7.6,4.4-15.6,6.2-24.5,5.4c-13.8-1.2-23.1-7.9-27.7-20.6c-4.7-13-3.8-25.8,2.2-38.4
		c7.5-15.5,27.8-19.3,40.3-14.8c4.4,1.6,5.5,0.9,5.3-3.8c-0.4-7.6,0-15.3-0.2-23c-0.1-2.6,0.5-3.7,3.4-3.7
		c6.7-0.1,13.5-0.5,20.2-1.2c3-0.3,3.6,0.6,3.5,3.3c-0.1,14.2,0,28.4,0,42.5c0.7,1.5,1.2,3,1.2,4.7c0,16.9,0.1,33.7-0.1,50.6
		c0,0.7-0.1,1.3-0.3,1.9c-3.8,3.8-13.4,3.7-17-0.5C567.2,424,565.3,423.1,562.7,423.8z"/>
	<path d="M311.8,438.5c5.4-2.2,9,0.1,12.7,4.1c10,10.6,20.3,20.9,30.7,31.1c3.3,3.2,3.2,5.5-0.2,8.4c-3.3,2.9-6.4,6.1-9.3,9.4
		c-1.8,2-2.9,2.4-5.1,0.2c-11.5-11.9-23.2-23.6-34.9-35.3c-1.4-1.4-3.3-3.2-2.5-5c2.3-4.7-1.1-6.8-3.6-9.4c-2.4-2.4-4.5-6-7.5-6.9
		c-2.9-0.9-5.4,3-8.2,4.5c-18.8,10.4-41.9,8.7-58.9-4.6c-17.4-13.6-24.6-36.6-18.4-58.1c6-20.5,24.1-36,44.9-38.1
		c12.7-1.3,24.5,0.9,35,8.4c3,2.7,6,5.5,9.9,6.9c1.7,0.6,2.9,2.1,4.1,3.5c13.8,17,15.7,44.8,4.3,63.7c-4,6.7-4,6.7,1.5,12.1
		C308.3,435,309.9,436.9,311.8,438.5z"/>
	<path class="st1" d="M419.1,391.8c0-10.6,0.1-21.2-0.1-31.8c-0.1-3.1,0.8-3.9,3.8-3.8c5.3,0.3,10.9-1.2,14.3,4.8
		c1.4,2.5,3.2,0.3,4.6-0.4c9.5-4.8,19.4-8,30.3-6.7c13.5,1.6,21.5,9.1,23.1,22.6c1.8,16.3,0.4,32.6,0.8,48.9
		c0.1,2.6-1.5,2.4-3.2,2.4c-6.9,0-13.8-0.1-20.7,0.1c-2.9,0.1-3.5-1-3.5-3.6c0.1-12.6,0.1-25.1,0-37.7c0-9.4-4.8-12.8-14.1-10
		c-8.2,2.5-8.2,2.5-8.2,10.9c0,12.2-0.1,24.5,0.1,36.7c0,3-0.8,3.9-3.8,3.8c-6.7-0.2-13.5-0.2-20.2,0c-2.6,0.1-3.3-0.8-3.3-3.3
		C419.2,413.7,419.1,402.7,419.1,391.8z"/>
	<path class="st1" d="M311.8,438.5c-4.4-2.2-7.1-6.2-10.4-9.5c-1.7-1.7-0.6-3.5,0.6-5.2c7.1-10.3,9.9-21.9,9.3-34.1
		c-0.5-11.7-4.4-22.6-11.9-31.7c-2.5-3.1-6.5-5.1-9.8-7.5c-1.2-0.9-2.4-1.7-2.8-3.2c3.1,1,4.9,3.8,8.4,5.6c0-7.3,0.2-14.2-0.1-21.1
		c-0.1-3.5,1-4.3,4.4-4.3c19.1,0.2,38.2,0.2,57.3,0c3.5,0,4.5,1.3,4.8,4.3c0.5,5.5,1.2,11,1.8,16.9c-12.3,0-24.4,0.1-36.6-0.1
		c-3.6-0.1-5,0.7-4.6,4.5c0.6,5.1-2.1,11.9,1.1,15c3,2.9,9.7,0.7,14.8,0.8c4.3,0.1,8.6,0.1,12.8,0c2.1,0,2.8,0.7,3,2.8
		c0.5,5,1.1,10,1.9,15c0.4,2.6-0.4,3.3-3.1,3.3c-8.9-0.1-17.8,0.1-26.7-0.1c-3.1-0.1-3.9,0.7-3.8,3.8c0.2,6.7,0.2,13.4,0,20.1
		c-0.1,4.7,2.1,10.9-0.9,13.6c-2.5,2.3-8.7,0.6-13.3,0.8c-1.7,0.1-3.5-0.5-5.5,0.5C305.7,431.8,308.7,435.1,311.8,438.5z"/>
	<path class="st2" d="M586.1,369.9c13.6,0.1,27.3-1.3,40.8,2c11.1,2.7,15.4,8.1,15.5,19.4c0,4.4,0,8.8,0,13.2
		c-0.1,10.6-3.8,15.9-13.9,19.4c-2.3,0.8-4.7,1.3-7.8,2.2c9.2,12.9,18.1,25.6,27.6,39c-8.9,0-16.9-0.1-24.9,0
		c-2.1,0-2.7-1.5-3.6-2.8c-6-8.8-12.4-17.3-17.6-26.6c-3.9-6.9-8.8-9.3-16.3-7.9c-0.1-0.3-0.3-0.5-0.4-0.8c0-5-0.3-10,0.2-15
		c1.8-1.6,4-1.3,6.1-1.4c5.9-0.1,11.8,0.2,17.7-0.1c6.4-0.3,8.4-2.5,8.6-8.8c0.3-12.3-1.7-14.4-14.2-14.6c-4.3-0.1-8.5,0.1-12.8-0.1
		c-1.9,0-4,0.2-5.4-1.6C585.7,380.3,585,375.1,586.1,369.9z"/>
	<path class="st1" d="M373.6,391.5c0-10.4,0.2-20.8-0.1-31.3c-0.1-3.5,1-4.3,4.4-4.2c6.4,0.3,12.8,0.2,19.2,0
		c2.6-0.1,3.8,0.3,3.8,3.4c-0.1,21.7-0.1,43.3,0,65c0,3-1.1,3.5-3.7,3.4c-6.7-0.2-13.5-0.2-20.2,0c-2.9,0.1-3.5-1-3.4-3.6
		C373.7,413.4,373.6,402.5,373.6,391.5z"/>
	<path class="st3" d="M562.7,423.8c2.4-2.8,4.6-3.9,6.5,0.5c1.2,2.9,3.2,4,6.5,3.7c3.1-0.3,6.2-0.1,9.3-0.1c0.3-0.4,0.7-0.4,1,0
		l0.1,0.1c0,11.1-0.1,22.1,0,33.2c0,3.1-0.7,4.3-4,4.1c-4.9-0.3-9.8-0.3-14.8,0c-3.4,0.2-4.5-0.8-4.4-4.3
		C563,448.5,562.8,436.1,562.7,423.8z"/>
	<path class="st1" d="M372.6,331.8c0-8.1,6.5-14.7,14.5-14.7c8,0,14.8,6.6,14.9,14.5c0.1,7.8-6.7,14.6-14.7,14.8
		C379.4,346.5,372.6,339.8,372.6,331.8z"/>
	<path class="st4" d="M586,427.8c-0.3,0-0.7,0-1,0c0-17.7,0.1-35.3,0.1-53c0-1.8,0.1-3.5,0.2-5.3c0.3,0.2,0.6,0.3,0.9,0.5
		c0,5.3,0,10.7,0.1,16c1.3,1.3,1.3,2.9,1.4,4.6c0.1,5.7,0.1,11.4,0,17.1c0,1.7-0.3,3.2-1.5,4.6C586.1,417.4,586,422.6,586,427.8z"/>
	<path class="st5" d="M558.2,392.7c0,2.6-0.4,5.3,0.1,7.8c0.8,4.6-1.7,6-5.5,6.7c-8,1.5-13.8-1.9-16.3-9.6c-2-6.3-0.7-12.3,2.4-17.8
		c2.2-3.9,7-5.2,12.2-3.5c4.1,1.4,8.1,2.9,7.1,8.7C557.8,387.4,558.2,390.1,558.2,392.7z"/>
	<path class="st0" d="M295.5,409.2c-0.3,4.1-2.3,7.4-4.9,10.4c-10.6,12.2-24.1,17.6-40.1,14.6c-15.9-3-26.8-12.4-32.1-27.8
		c-2.5-8.2-3.3-16.4-1-24.8c3.4-16,17.4-28.7,34.4-31.4c16.3-2.6,33.7,5.5,41.8,19.2c1.2,2.1,1.2,4.3,1.8,6.5
		c2.2,3.8,1.2,7.9,1.1,11.9c-0.1,3.1-1.7,3.5-4.2,1.7c-1.3-1-2.2-2.5-4.3-3.2c0.9,3.5-1.4,5.4-3.5,7.5c-8.9,8.9-17.9,17.7-26.8,26.6
		c-1.2,1.2-3,2.1-3.1,4.3c2.2-0.1,3-1.8,4.2-3c9.3-9.2,18.6-18.4,27.9-27.6c1.7-1.7,3.3-3.9,6.3-2.7c3.1,1.3,3.8,3.9,3.6,6.8
		C296.5,401.9,297.5,405.8,295.5,409.2z"/>
	<path class="st6" d="M295.5,409.2c-0.1-4.1-0.5-8.1-0.2-12.2c0.2-2.7-1.5-3.6-3.1-4.8c-2.2-1.6-2.8,0.9-3.8,1.8
		c-10.5,10.3-20.9,20.7-31.4,31c-1.1,1-1.9,3.5-4.1,1.1c-2-2.2,0.3-2.9,1.2-3.8c10.4-10.4,20.9-20.8,31.3-31.1
		c1.4-1.4,3.8-2.7,0.9-4.9c-0.9-0.7-0.3-1.4,0.3-2c0.8-0.7,1.5-0.5,2.1,0.2c1.7,2,3.3,4,5,6c0.6-0.3,1.2-0.5,1.7-0.8
		c0-4.6,0-9.2,0-13.8c2.1,0.9,2.6,2.8,3.1,4.7c2.3,9,2,17.8-1.1,26.6C297.1,408.2,296.4,408.8,295.5,409.2z"/>
	<path class="st7" d="M217.4,381.6c-1.1,8.3-0.5,16.6,1,24.8C215,398.3,214.6,390,217.4,381.6z"/>
	<path class="st0" d="M586.1,412.2c0-8.7,0.1-17.5,0.1-26.2c8.5,0.1,17.1-0.7,25.6,0.6c6,0.9,7.8,3,8,9c0.5,15.3-1,16.8-16.5,16.8
		C597.6,412.3,591.8,412.2,586.1,412.2z"/>
	<path class="st6" d="M246.1,418.1c-3,0.1-4.7-1.6-6-3.8c-1.5-2.8-0.2-5.1,1.7-7c5.9-5.9,11.9-11.8,17.8-17.7
		c4.3-4.3,8.6-8.5,12.9-12.8c3-3,6-3,9,0c2.8,2.9,2.7,5.7-0.1,8.5c-10.3,10.1-20.5,20.3-30.7,30.4C249.4,417,248,418.1,246.1,418.1z
		"/>
	<path class="st6" d="M225,396.5c-4,0.4-5.5-2.1-7-4.1c-1.6-2.1-0.1-4,1.4-5.5c3.9-4,7.9-7.9,11.8-11.9c1-1.1,1.9-1.6,3.2-0.3
		c1.4,1.4,0.7,2.2-0.3,3.2c-3.6,3.5-7.3,7.1-10.8,10.7c-1,1-2.6,2.1-1.2,3.7c1.6,1.8,2.9,0.2,4.1-0.9c6.6-6.2,12.7-12.5,14.4-22.1
		c1.2-6.7,6.9-10.9,12-15.1c2.5-2.1,5.3-1.1,7.4,1.2c2.2,2.3,2.8,5,0.6,7.4c-2.8,3.2-6,6-8.9,9.1c-1.3,1.4-2.1,0.8-3.2-0.2
		c-1.1-1.1-0.6-1.8,0.3-2.7c2.6-2.5,5.1-5,7.7-7.6c1.1-1.1,2.8-2.4,1-4c-1.5-1.4-2.7,0.1-3.7,1.1c-5.2,4.7-9.2,9.9-10.6,17.1
		c-1.8,9.4-9.8,14.3-16.1,20.3C226.3,396.4,225.2,396.5,225,396.5z"/>
	<path class="st8" d="M272.7,370.7c-0.3,1.9-1.2,3-2.2,4c-3.8,3.8-7.7,7.5-11.5,11.4c-2.6,2.7-5.3,3.3-8.1,0.6c-2-1.9-3-1.2-4.6,0.4
		c-4.7,4.8-9.5,9.5-14.3,14.2c-0.9,0.8-1.5,2.7-3.4,0.9c-2-1.9-0.5-2.7,0.7-3.9c11.5-11.4,23-22.7,34.4-34.2c1.8-1.8,2.9-1.9,4.6,0
		C270.1,366.2,272.1,368.1,272.7,370.7z"/>
	<path class="st9" d="M279.8,380.2c-0.1,1.3-1.1,1.9-1.9,2.7c-9.9,9.8-19.7,19.6-29.6,29.3c-1.2,1.2-2.6,3.3-4.4,1.6
		c-2-1.8,0.3-3.2,1.5-4.3c9.9-9.9,19.9-19.8,29.9-29.7c0.9-0.9,1.6-2.2,3.2-1.5C279.3,378.7,279.8,379.3,279.8,380.2z"/>
	<path class="st10" d="M269,369.8c-0.5,0.7-0.9,1.4-1.5,2c-3.9,3.9-7.9,7.8-11.8,11.7c-1.3,1.3-2.6,1.3-3.8,0.1
		c-1.7-1.6,0.3-2.3,1-3c4-4.1,8.1-8.1,12.1-12.1c0.6-0.6,1.2-1.8,2.3-0.7C268,368.3,268.4,369,269,369.8z"/>
</g>
</svg>
