<?xml version="1.0" standalone="yes"?>
<svg xmlns="http://www.w3.org/2000/svg" width="450" height="181">
<path style="fill:#ffffff; stroke:none;" d="M0 0L0 181L140 181C137.386 175.395 132.332 171.332 128 167C120.391 159.391 112.234 152.064 105.11 144C101.453 139.861 102.983 136.44 100.934 132C98.7917 127.359 93.5632 123.563 90 120C78.6537 126.317 67.7013 133.5 54 132.791C45.8016 132.367 37.1592 130.158 30 126.124C13.1832 116.649 1.07996 97.5966 1.0787 78C1.07685 49.2398 26.0357 23.0077 55 23.0077C63.5563 23.0077 72.5141 25.3645 80 29.5146C84.5693 32.0479 88.2638 35.8311 93 38L93 12L159 12C159.555 19.0334 160.98 25.921 161 33L120 33L120 54L152 54C152.005 61.0894 153.113 67.9836 154 75L120 75L120 114L99 114C101.524 117.582 104.86 122.069 109 123.883C112.086 125.236 115.058 124.199 118 126.333C126.811 132.723 134.306 142.306 142 150C145.209 153.209 155.717 160.602 154.824 165.715C153.879 171.121 145.15 176.528 142 181L450 181L450 152L432 152C429.048 151.994 425.816 152.284 423.326 150.397C420.616 148.344 418.854 144.781 417 142L405 124C403.009 121.014 401.041 116.863 397.816 115.028C394.777 113.299 390.365 114 387 114L387 152L364 152L364 109C357.094 112.224 351.822 114.962 344 114.999C334.769 115.043 326.063 113.45 319.093 106.815C301.322 89.8965 304.475 52.0043 328 41.5293C338.149 37.0103 348.889 38.7112 359 42L359 9L386 8L386 55C400.969 55 423.032 51.4368 435.995 60.6489C444.689 66.8268 444.004 76.4985 444 86C443.998 92.1615 443.856 98.0078 439.657 102.957C434.962 108.491 428.498 109.782 422 112C426.681 120.407 432.711 128.169 438.291 136C441.921 141.095 445.165 147.004 450 151L450 0L0 0z"/>
<path style="fill:#b9b99e; stroke:none;" d="M182 1L183 2L182 1z"/>
<path style="fill:#010204; stroke:none;" d="M183 1.54784C163.741 5.74861 170.891 34.3557 189.999 29.581C207.118 25.3035 200.195 -2.20279 183 1.54784z"/>
<path style="fill:#65658c; stroke:none;" d="M188 1L189 2L188 1z"/>
<path style="fill:#5d5d8b; stroke:none;" d="M193 3L194 4L193 3z"/>
<path style="fill:#dadab9; stroke:none;" d="M176 4L177 5L176 4z"/>
<path style="fill:#73738f; stroke:none;" d="M175 5L176 6L175 5z"/>
<path style="fill:#e0e0be; stroke:none;" d="M174 6L175 7L174 6z"/>
<path style="fill:#d2d3b3; stroke:none;" d="M371 8L372 9L371 8z"/>
<path style="fill:#9a9c97; stroke:none;" d="M372 8L373 9L372 8z"/>
<path style="fill:#515289; stroke:none;" d="M373 8L374 9L373 8z"/>
<path style="fill:#010204; stroke:none;" d="M359 9L359 42C352.152 39.7727 346.224 38.8261 339 39.0147C309.463 39.7858 299.934 79.4395 314.108 101C322.049 113.079 335.304 116.316 349 114.826C356.105 114.054 362.432 110.246 368 106C371.857 114.904 377.295 114 386 114L386 8L359 9z"/>
<path style="fill:#e4e4be; stroke:none;" d="M199 10L200 11L199 10z"/>
<path style="fill:#010204; stroke:none;" d="M93 12C93 21.1377 94.1251 31.0742 92 40L96 40L96 45C101.155 47.9328 104.113 55.501 105.856 61C110.312 75.0539 109.71 89.2472 103.323 102.701C101.576 106.38 98.6119 109.22 97 113C104.423 114.767 112.407 114 120 114L120 75L154 75C153.042 69.8404 154.115 59.7486 150.821 55.6034C148.961 53.2626 144.611 54.0012 142 54L120 54L120 33L161 33C160.942 25.9391 159.302 19.0377 159 12L93 12z"/>
<path style="fill:#d2d2b0; stroke:none;" d="M171 12L172 13L171 12z"/>
<path style="fill:#e0e0bc; stroke:none;" d="M200.333 15.6667C200.278 15.7222 200.222 16.7778 200.667 16.3333C200.722 16.2777 200.778 15.2223 200.333 15.6667z"/>
<path style="fill:#b2b39c; stroke:none;" d="M159 16L160 17L159 16z"/>
<path style="fill:#272882; stroke:none;" d="M159 17L160 18L159 17z"/>
<path style="fill:#929295; stroke:none;" d="M48.6667 23.3333C48.2223 23.7778 49.2778 23.7222 49.3333 23.6667C49.7778 23.2222 48.7222 23.2778 48.6667 23.3333z"/>
<path style="fill:#515189; stroke:none;" d="M50 23L51 24L50 23z"/>
<path style="fill:#000000; stroke:none;" d="M97 113L97 111C101.598 107.973 103.466 103.15 105.281 98.1659C109.773 85.8312 110.112 73.5669 106.174 61C104.481 55.5986 101.747 46.9682 96 45L96 40C90.0881 38.2161 85.5525 32.4522 80 29.49C66.8636 22.4817 52.0317 21.8916 38 26.2052C-1.50946 38.3512 -11.0261 94.8296 21.0039 120.331C33.9 130.599 51.8563 135.076 68 130.844C72.9097 129.557 77.5895 127.635 82 125.125C84.3358 123.796 87.1109 121.266 90 122.167C94.0646 123.433 100.078 130.086 101.549 134C102.563 136.7 101.989 139.43 103.604 142C109.873 151.974 120.702 160.702 129 169C131.904 171.904 135.843 177.618 140 178.654C142.853 179.365 145.155 176.733 147 174.98C151.072 171.11 157.37 166.664 152.833 161C148.484 155.572 142.83 151.089 138.09 146C132.075 139.544 126.386 131.51 119 126.529C115.722 124.318 111.805 125.722 108.715 123.498C104.412 120.403 101.636 115.655 97 113z"/>
<path style="fill:#484887; stroke:none;" d="M59 23L60 24L59 23z"/>
<path style="fill:#b5b59c; stroke:none;" d="M60.6667 23.3333C60.2223 23.7778 61.2778 23.7223 61.3333 23.6667C61.7778 23.2222 60.7222 23.2778 60.6667 23.3333z"/>
<path style="fill:#e4e4be; stroke:none;" d="M42 24L43 25L42 24z"/>
<path style="fill:#888893; stroke:none;" d="M43 24L44 25L43 24z"/>
<path style="fill:#323283; stroke:none;" d="M44 24L45 25L44 24z"/>
<path style="fill:#313183; stroke:none;" d="M65 24L66 25L65 24z"/>
<path style="fill:#828292; stroke:none;" d="M66 24L67 25L66 24z"/>
<path style="fill:#d6d6b4; stroke:none;" d="M67 24L68 25L67 24z"/>
<path style="fill:#e2e3be; stroke:none;" d="M160 24L161 25L160 24z"/>
<path style="fill:#3d3d85; stroke:none;" d="M197 24L198 25L197 24z"/>
<path style="fill:#9d9d97; stroke:none;" d="M39 25L40 26L39 25z"/>
<path style="fill:#262681; stroke:none;" d="M40 25L41 26L40 25z"/>
<path style="fill:#929295; stroke:none;" d="M70 25L71 26L70 25z"/>
<path style="fill:#6a6b8e; stroke:none;" d="M160 25L161 26L160 25z"/>
<path style="fill:#9c9c97; stroke:none;" d="M36 26L37 27L36 26z"/>
<path style="fill:#929295; stroke:none;" d="M73 26L74 27L73 26z"/>
<path style="fill:#4d4d88; stroke:none;" d="M34 27L35 28L34 27z"/>
<path style="fill:#424286; stroke:none;" d="M75 27L76 28L75 27z"/>
<path style="fill:#4f4f88; stroke:none;" d="M194 27L195 28L194 27z"/>
<path style="fill:#dadab7; stroke:none;" d="M31 28L32 29L31 28z"/>
<path style="fill:#cdcdab; stroke:none;" d="M78 28L79 29L78 28z"/>
<path style="fill:#424286; stroke:none;" d="M178 28L179 29L178 28z"/>
<path style="fill:#dadab7; stroke:none;" d="M80 29L81 30L80 29z"/>
<path style="fill:#3e3e85; stroke:none;" d="M180 29L181 30L180 29z"/>
<path style="fill:#3c3c85; stroke:none;" d="M28 30L29 31L28 30z"/>
<path style="fill:#313183; stroke:none;" d="M81 30L82 31L81 30z"/>
<path style="fill:#cdcdad; stroke:none;" d="M185.667 30.3333C185.222 30.7778 186.278 30.7222 186.333 30.6667C186.778 30.2222 185.722 30.2778 185.667 30.3333z"/>
<path style="fill:#929295; stroke:none;" d="M26 31L27 32L26 31z"/>
<path style="fill:#888893; stroke:none;" d="M83 31L84 32L83 31z"/>
<path style="fill:#afaf9b; stroke:none;" d="M23 33L24 34L23 33z"/>
<path style="fill:#a2a298; stroke:none;" d="M86 33L87 34L86 33z"/>
<path style="fill:#484887; stroke:none;" d="M22 34L23 35L22 34z"/>
<path style="fill:#848482; stroke:none;" d="M47.6667 34.3333C47.2222 34.7778 48.2778 34.7222 48.3333 34.6667C48.7778 34.2222 47.7222 34.2778 47.6667 34.3333z"/>
<path style="fill:#b5b5b5; stroke:none;" d="M49.6667 34.3333C49.2222 34.7778 50.2778 34.7222 50.3333 34.6667C50.7778 34.2222 49.7222 34.2778 49.6667 34.3333z"/>
<path style="fill:#d7d7d7; stroke:none;" d="M51 34C53.3316 34.9845 55.4566 34.9813 58 35C55.6684 34.0155 53.5433 34.0187 51 34z"/>
<path style="fill:#b7b7b7; stroke:none;" d="M58 34C59.2483 34.6848 59.5485 34.7488 61 35C59.7516 34.3152 59.4516 34.2512 58 34z"/>
<path style="fill:#626284; stroke:none;" d="M61.6667 34.3333C61.2222 34.7778 62.2778 34.7222 62.3333 34.6667C62.7778 34.2222 61.7222 34.2778 61.6667 34.3333z"/>
<path style="fill:#242480; stroke:none;" d="M63 34L64 35L63 34z"/>
<path style="fill:#3d3d85; stroke:none;" d="M87 34L88 35L87 34z"/>
<path style="fill:#6f6f84; stroke:none;" d="M43 35L44 36L43 35z"/>
<path style="fill:#cbcbcb; stroke:none;" d="M44.6667 35.3333C44.2223 35.7778 45.2778 35.7222 45.3333 35.6667C45.7778 35.2222 44.7222 35.2778 44.6667 35.3333z"/>
<path style="fill:#ffffff; stroke:none;" d="M89 77C81.9384 81.9743 76.099 88.901 70 95C63.901 101.099 56.9743 106.938 52 114C49.5272 108.362 55.1886 104.812 59 101L77 83C81.0763 78.9151 85.09 75.9998 83 70L84 69L92 75C92 68.7045 93.6262 59.7355 90.6821 54C80.2058 33.5906 48.712 29.1104 31 41.7886C13.5291 54.2941 7.60669 78.6733 17.2701 98C20.4917 104.443 25.0573 109.687 31 113.779C45.6611 123.876 66.8955 123.356 81 112.471C89.602 105.832 92.0007 99.4207 92 89C91.9997 84.2009 92.2859 80.7201 89 77z"/>
<path style="fill:#cecece; stroke:none;" d="M63 35C64.2484 35.6848 64.5484 35.7488 66 36C64.7517 35.3152 64.4515 35.2512 63 35z"/>
<path style="fill:#747484; stroke:none;" d="M66 35L67 36L66 35M40 36L41 37L40 36z"/>
<path style="fill:#dedede; stroke:none;" d="M41.6667 36.3333C41.2222 36.7778 42.2778 36.7222 42.3333 36.6667C42.7778 36.2222 41.7222 36.2778 41.6667 36.3333z"/>
<path style="fill:#b8b8b8; stroke:none;" d="M68 36L69 37L68 36z"/>
<path style="fill:#797983; stroke:none;" d="M69 36L70 37L69 36z"/>
<path style="fill:#373782; stroke:none;" d="M37 37L38 38L37 37z"/>
<path style="fill:#9d9d9c; stroke:none;" d="M38 37L39 38L38 37z"/>
<path style="fill:#a3a3a2; stroke:none;" d="M71 37L72 38L71 37z"/>
<path style="fill:#3b3b82; stroke:none;" d="M72 37L73 38L72 37M35 38L36 39L35 38z"/>
<path style="fill:#aaaaaa; stroke:none;" d="M36 38L37 39L36 38z"/>
<path style="fill:#3b3b82; stroke:none;" d="M50 38L51 39L50 38z"/>
<path style="fill:#000103; stroke:none;" d="M19 79C19.2979 72.0089 27.3214 66.6786 32 62C31.5279 60.5838 31.1863 60.1863 30 59C25.1838 62.3926 17.5204 68.1983 15.6227 73.9992C13.5645 80.2905 20.5086 82.9811 25 79.6782C29.61 76.2881 34.8325 71.0424 37.5826 66C42.9242 56.2059 43.4732 46.3754 55 41C54.8843 47.2753 48.4071 51.1632 45 56C49.9524 56.0738 54.8433 51.3642 57.1636 47C58.9927 43.5596 57.1299 39.0561 52.9815 38.662C48.1372 38.2018 43.0935 44.5012 40.6489 48C37.8755 51.9695 37.3915 56.6744 35.4707 61C32.2657 68.2174 25.9852 75.3763 19 79z"/>
<path style="fill:#3a3a82; stroke:none;" d="M54 38L55 39L54 38z"/>
<path style="fill:#adadad; stroke:none;" d="M73 38L74 39L73 38z"/>
<path style="fill:#444483; stroke:none;" d="M74 38L75 39L74 38z"/>
<path style="fill:#515189; stroke:none;" d="M92 38L93 39L92 38z"/>
<path style="fill:#b5b59c; stroke:none;" d="M266.667 38.3333C266.222 38.7777 267.278 38.7223 267.333 38.6667C267.778 38.2221 266.722 38.2779 266.667 38.3333z"/>
<path style="fill:#989896; stroke:none;" d="M343.667 38.3333C343.222 38.7777 344.278 38.7223 344.333 38.6667C344.778 38.2221 343.722 38.2778 343.667 38.3333z"/>
<path style="fill:#d3d3b1; stroke:none;" d="M345 38L346 39L345 38z"/>
<path style="fill:#a3a3a2; stroke:none;" d="M34 39L35 40L34 39z"/>
<path style="fill:#a9a9a8; stroke:none;" d="M48 39L49 40L48 39z"/>
<path style="fill:#b0b0b0; stroke:none;" d="M56 39L57 40L56 39z"/>
<path style="fill:#a9a9a8; stroke:none;" d="M75 39L76 40L75 39z"/>
<path style="fill:#323383; stroke:none;" d="M257 39L258 40L257 39z"/>
<path style="fill:#010204; stroke:none;" d="M219 41L219 114L245 114L245 64C250.749 63.0107 257.148 58.7859 262.956 61.5872C268.376 64.201 268.932 70.6787 268.996 76C269.148 88.6627 269 101.336 269 114L295 114L295 72C295 61.4656 294.106 50.4836 284.985 43.5579C275.953 36.6986 261.155 37.938 251 41.3557C247.28 42.6076 242.966 45.9006 239.039 46.0448C235.711 46.1669 233.862 42.6992 230.961 41.6026C227.419 40.264 222.731 41 219 41z"/>
<path style="fill:#6e6f8e; stroke:none;" d="M351 39L352 40L351 39z"/>
<path style="fill:#7d7d83; stroke:none;" d="M32 40L33 41L32 40z"/>
<path style="fill:#a0a2a0; stroke:none;" d="M47 40L48 41L47 40z"/>
<path style="fill:#bcbcbc; stroke:none;" d="M57 40L58 41L57 40z"/>
<path style="fill:#848482; stroke:none;" d="M77 40L78 41L77 40z"/>
<path style="fill:#777890; stroke:none;" d="M279 40L280 41L279 40z"/>
<path style="fill:#abab9a; stroke:none;" d="M330 40L331 41L330 40z"/>
<path style="fill:#828292; stroke:none;" d="M354 40L355 41L354 40z"/>
<path style="fill:#252580; stroke:none;" d="M30 41L31 42L30 41z"/>
<path style="fill:#b9b9b9; stroke:none;" d="M31 41L32 42L31 41z"/>
<path style="fill:#9fa19f; stroke:none;" d="M46 41L47 42L46 41z"/>
<path style="fill:#919190; stroke:none;" d="M52 41L53 42L52 41z"/>
<path style="fill:#c4c4c4; stroke:none;" d="M53 41L54 42L53 41z"/>
<path style="fill:#424283; stroke:none;" d="M54 41L55 42L54 41z"/>
<path style="fill:#c2c2c2; stroke:none;" d="M78 41L79 42L78 41z"/>
<path style="fill:#303082; stroke:none;" d="M79 41L80 42L79 41z"/>
<path style="fill:#101113; stroke:none;" d="M172 41L172 114C174.189 108.784 173 101.619 173 96L173 60C173 54.113 174.292 46.4625 172 41z"/>
<path style="fill:#010204; stroke:none;" d="M173 41L173 114L199 114L199 41L173 41z"/>
<path style="fill:#101113; stroke:none;" d="M218 41L218 114C220.189 108.784 219 101.619 219 96L219 60C219 54.113 220.292 46.4625 218 41z"/>
<path style="fill:#787890; stroke:none;" d="M250 41L251 42L250 41z"/>
<path style="fill:#2b2b82; stroke:none;" d="M327 41L328 42L327 41z"/>
<path style="fill:#b5b59c; stroke:none;" d="M357 41L358 42L357 41z"/>
<path style="fill:#6e6e84; stroke:none;" d="M29 42L30 43L29 42z"/>
<path style="fill:#a0a09f; stroke:none;" d="M45 42L46 43L45 42z"/>
<path style="fill:#888886; stroke:none;" d="M58 42L59 43L58 42z"/>
<path style="fill:#7b7b83; stroke:none;" d="M80 42L81 43L80 42z"/>
<path style="fill:#787890; stroke:none;" d="M283 42L284 43L283 42z"/>
<path style="fill:#a6a699; stroke:none;" d="M325 42L326 43L325 42z"/>
<path style="fill:#373784; stroke:none;" d="M13 43L14 44L13 43z"/>
<path style="fill:#959594; stroke:none;" d="M28 43L29 44L28 43z"/>
<path style="fill:#a1a1a0; stroke:none;" d="M44 43L45 44L44 43z"/>
<path style="fill:#6f6f84; stroke:none;" d="M55 43L56 44L55 43z"/>
<path style="fill:#4c4c84; stroke:none;" d="M58 43L59 44L58 43z"/>
<path style="fill:#9f9f9e; stroke:none;" d="M81 43L82 44L81 43z"/>
<path style="fill:#9c9c97; stroke:none;" d="M12 44L13 45L12 44z"/>
<path style="fill:#b1b1b1; stroke:none;" d="M27 44L28 45L27 44z"/>
<path style="fill:#a0a09f; stroke:none;" d="M43 44L44 45L43 44z"/>
<path style="fill:#bababa; stroke:none;" d="M82 44L83 45L82 44z"/>
<path style="fill:#787890; stroke:none;" d="M243 44L244 45L243 44z"/>
<path style="fill:#c2c2c2; stroke:none;" d="M26 45L27 46L26 45z"/>
<path style="fill:#a9a9a9; stroke:none;" d="M42 45L43 46L42 45z"/>
<path style="fill:#424283; stroke:none;" d="M54 45L55 46L54 45z"/>
<path style="fill:#656584; stroke:none;" d="M58 45L59 46L58 45z"/>
<path style="fill:#c8c8c8; stroke:none;" d="M83 45L84 46L83 45z"/>
<path style="fill:#363684; stroke:none;" d="M235 45L236 46L235 45z"/>
<path style="fill:#828292; stroke:none;" d="M241 45L242 46L241 45z"/>
<path style="fill:#c9c9c9; stroke:none;" d="M25 46L26 47L25 46z"/>
<path style="fill:#bcbcbc; stroke:none;" d="M41 46L42 47L41 46z"/>
<path style="fill:#454583; stroke:none;" d="M53 46L54 47L53 46z"/>
<path style="fill:#c9c9c9; stroke:none;" d="M58 46L59 47L58 46z"/>
<path style="fill:#cfcfcf; stroke:none;" d="M84 46C84.5451 47.6351 84.3649 47.455 86 48C85.455 46.3649 85.6352 46.5451 84 46z"/>
<path style="fill:#242480; stroke:none;" d="M85 46L86 47L85 46z"/>
<path style="fill:#828292; stroke:none;" d="M236 46L237 47L236 46z"/>
<path style="fill:#a7a799; stroke:none;" d="M239 46L240 47L239 46z"/>
<path style="fill:#6c6c8e; stroke:none;" d="M10 47L11 48L10 47z"/>
<path style="fill:#c8c8c8; stroke:none;" d="M24 47L25 48L24 47z"/>
<path style="fill:#484884; stroke:none;" d="M52 47L53 48L52 47z"/>
<path style="fill:#616184; stroke:none;" d="M57 47L58 48L57 47z"/>
<path style="fill:#767681; stroke:none;" d="M62 47L58 52C60.089 50.4443 61.4028 49.5116 62 47z"/>
<path style="fill:#414180; stroke:none;" d="M63 47C64.1034 48.4567 64.5434 48.8966 66 50C64.8966 48.5434 64.4566 48.1034 63 47z"/>
<path style="fill:#bcbcbc; stroke:none;" d="M23 48L24 49L23 48z"/>
<path style="fill:#c3c3c3; stroke:none;" d="M45 48L46 49L45 48z"/>
<path style="fill:#484884; stroke:none;" d="M51 48L52 49L51 48z"/>
<path style="fill:#393982; stroke:none;" d="M56 48L57 49L56 48z"/>
<path style="fill:#000103; stroke:none;" d="M25 87L26 88C33.0113 84.7304 36.8085 77.6733 43 73.2917C46.5354 70.7897 49.3237 73.4255 53 72.3395C58.6766 70.6627 71.7651 58.4472 67.392 52.0633C62.982 45.6256 57.5635 52.4441 54 56L36 74C31.9616 78.0384 27.4349 81.7787 25 87z"/>
<path style="fill:#c5c5c5; stroke:none;" d="M86 48L87 49L86 48z"/>
<path style="fill:#a9a9a9; stroke:none;" d="M22 49L23 50L22 49z"/>
<path style="fill:#868686; stroke:none;" d="M39 49L40 50L39 49z"/>
<path style="fill:#a0a09f; stroke:none;" d="M44 49L45 50L44 49z"/>
<path style="fill:#444483; stroke:none;" d="M50 49L51 50L50 49z"/>
<path style="fill:#393982; stroke:none;" d="M55 49L56 50L55 49z"/>
<path style="fill:#b3b3b3; stroke:none;" d="M87 49L88 50L87 49z"/>
<path style="fill:#c2c2a3; stroke:none;" d="M8 50L9 51L8 50z"/>
<path style="fill:#888886; stroke:none;" d="M21 50L22 51L21 50z"/>
<path style="fill:#4b4b84; stroke:none;" d="M43 50L44 51L43 50z"/>
<path style="fill:#444483; stroke:none;" d="M49 50L50 51L49 50z"/>
<path style="fill:#393982; stroke:none;" d="M54 50L55 51L54 50z"/>
<path style="fill:#545481; stroke:none;" d="M66 50L67 51L66 50z"/>
<path style="fill:#949493; stroke:none;" d="M88 50L89 51L88 50z"/>
<path style="fill:#5e5e84; stroke:none;" d="M20 51L21 52L20 51z"/>
<path style="fill:#555584; stroke:none;" d="M38 51L39 52L38 51z"/>
<path style="fill:#4b4b84; stroke:none;" d="M48 51L49 52L48 51z"/>
<path style="fill:#3a3a82; stroke:none;" d="M53 51L54 52L53 51z"/>
<path style="fill:#707081; stroke:none;" d="M67 51L68 52L67 51z"/>
<path style="fill:#6c6c84; stroke:none;" d="M89 51L90 52L89 51z"/>
<path style="fill:#a2a298; stroke:none;" d="M7 52L8 53L7 52z"/>
<path style="fill:#838382; stroke:none;" d="M42 52L43 53L42 52z"/>
<path style="fill:#4a4a84; stroke:none;" d="M47 52L48 53L47 52z"/>
<path style="fill:#393982; stroke:none;" d="M52 52L53 53L52 52z"/>
<path style="fill:#787881; stroke:none;" d="M57 52L58 53L57 52z"/>
<path style="fill:#ffffff; stroke:none;" d="M63 52L48 67C53.6605 72.1745 68.1745 57.6605 63 52z"/>
<path style="fill:#b0b0ae; stroke:none;" d="M64 52L65 53L64 52z"/>
<path style="fill:#c3c3c3; stroke:none;" d="M68 52L69 53L68 52z"/>
<path style="fill:#252580; stroke:none;" d="M90 52L91 53L90 52z"/>
<path style="fill:#a9a9a8; stroke:none;" d="M19 53L20 54L19 53z"/>
<path style="fill:#aaaaa9; stroke:none;" d="M37 53L38 54L37 53z"/>
<path style="fill:#4a4a84; stroke:none;" d="M46 53L47 54L46 53z"/>
<path style="fill:#393982; stroke:none;" d="M51 53L52 54L51 53z"/>
<path style="fill:#787881; stroke:none;" d="M56 53L57 54L56 53z"/>
<path style="fill:#8b8b89; stroke:none;" d="M65 53L66 54L65 53z"/>
<path style="fill:#b1b1b1; stroke:none;" d="M90 53L91 54L90 53z"/>
<path style="fill:#bfbfa2; stroke:none;" d="M292 53L293 54L292 53z"/>
<path style="fill:#abab9a; stroke:none;" d="M6 54L7 55L6 54z"/>
<path style="fill:#666684; stroke:none;" d="M18 54L19 55L18 54z"/>
<path style="fill:#2b2b81; stroke:none;" d="M37 54L38 55L37 54z"/>
<path style="fill:#747484; stroke:none;" d="M41 54L42 55L41 54z"/>
<path style="fill:#4b4b84; stroke:none;" d="M45 54L46 55L45 54z"/>
<path style="fill:#393982; stroke:none;" d="M50 54L51 55L50 54z"/>
<path style="fill:#777781; stroke:none;" d="M55 54L56 55L55 54z"/>
<path style="fill:#b0b0b0; stroke:none;" d="M69 54L70 55L69 54z"/>
<path style="fill:#747484; stroke:none;" d="M91 54L92 55L91 54z"/>
<path style="fill:#d5d6b4; stroke:none;" d="M151 54L152 55L151 54z"/>
<path style="fill:#787890; stroke:none;" d="M313 54L314 55L313 54z"/>
<path style="fill:#949492; stroke:none;" d="M44 55L45 56L44 55z"/>
<path style="fill:#383882; stroke:none;" d="M49 55L50 56L49 55z"/>
<path style="fill:#777781; stroke:none;" d="M54 55L55 56L54 55z"/>
<path style="fill:#737381; stroke:none;" d="M69.3333 55.6667C69.2778 55.7222 69.2222 56.7778 69.6667 56.3333C69.7222 56.2778 69.7778 55.2222 69.3333 55.6667z"/>
<path style="fill:#55568a; stroke:none;" d="M151 55L152 56L151 55z"/>
<path style="fill:#59b7d6; stroke:none;" d="M386 55L386 72C387.883 67.5136 387.883 59.4865 386 55z"/>
<path style="fill:#4bbff7; stroke:none;" d="M387 55L387 71C395.479 71 409.47 68.3484 416.891 73.0895C424.27 77.8037 423.522 92.7031 415.981 96.8356C408.091 101.159 395.676 99 387 99L387 114C378.359 114 373.273 114.63 368 107C363.014 109.749 364 114.895 364 120L364 152L387 152L387 123C387.008 119.297 386.561 114.467 391.059 113.323C397.289 111.737 400.443 117.669 403.333 122L416 141C418.03 144.045 419.935 148.011 422.76 150.397C425.055 152.335 428.19 151.994 431 152L449 152C447.03 146.803 443.473 142.554 440.341 138C434.333 129.266 428.173 120.618 422 112C428.363 110.35 435.019 108.994 439.606 103.815C443.831 99.0449 443.998 93.0106 444 87C444.003 77.9008 445.334 66.7151 436.981 60.6489C432.382 57.308 426.468 56.6315 421 55.8696C409.798 54.3087 398.298 55 387 55z"/>
<path style="fill:#91f3ff; stroke:none;" d="M418 55L419 56L418 55z"/>
<path style="fill:#868684; stroke:none;" d="M17 56L18 57L17 56z"/>
<path style="fill:#5d5d84; stroke:none;" d="M45 56L46 57L45 56z"/>
<path style="fill:#383882; stroke:none;" d="M48 56L49 57L48 56z"/>
<path style="fill:#757781; stroke:none;" d="M53 56L54 57L53 56z"/>
<path style="fill:#595984; stroke:none;" d="M92 56L93 57L92 56z"/>
<path style="fill:#86e9ff; stroke:none;" d="M425 56L426 57L425 56z"/>
<path style="fill:#272781; stroke:none;" d="M5 57L6 58L5 57z"/>
<path style="fill:#a2a2a1; stroke:none;" d="M36 57L37 58L36 57z"/>
<path style="fill:#747484; stroke:none;" d="M40 57L41 58L40 57z"/>
<path style="fill:#383882; stroke:none;" d="M46.6667 57.3333C46.2222 57.7778 47.2778 57.7222 47.3333 57.6667C47.7778 57.2222 46.7222 57.2778 46.6667 57.3333z"/>
<path style="fill:#757781; stroke:none;" d="M52 57L53 58L52 57z"/>
<path style="fill:#cecece; stroke:none;" d="M69 57L70 58L69 57z"/>
<path style="fill:#c4c4c6; stroke:none;" d="M92 57L92 76C94.0196 71.1871 94.0196 61.8129 92 57z"/>
<path style="fill:#8f8f8d; stroke:none;" d="M16 58L17 59L16 58z"/>
<path style="fill:#d2d2d2; stroke:none;" d="M29 58L30 59L29 58z"/>
<path style="fill:#4d4d84; stroke:none;" d="M36 58L37 59L36 58z"/>
<path style="fill:#bbbbbb; stroke:none;" d="M40 58L41 59L40 58z"/>
<path style="fill:#767881; stroke:none;" d="M51 58L52 59L51 58z"/>
<path style="fill:#6d6d81; stroke:none;" d="M68 58L69 59L68 58z"/>
<path style="fill:#d2d2b0; stroke:none;" d="M311 58L312 59L311 58z"/>
<path style="fill:#abab9a; stroke:none;" d="M4 59L5 60L4 59z"/>
<path style="fill:#a2a2a1; stroke:none;" d="M28 59L29 60L28 59z"/>
<path style="fill:#848482; stroke:none;" d="M30 59L31 60L30 59z"/>
<path style="fill:#777781; stroke:none;" d="M50 59L51 60L50 59z"/>
<path style="fill:#575781; stroke:none;" d="M67 59L68 60L67 59z"/>
<path style="fill:#a0a09e; stroke:none;" d="M73.6667 59.3333C73.2222 59.7778 74.2778 59.7222 74.3333 59.6667C74.7778 59.2222 73.7222 59.2778 73.6667 59.3333z"/>
<path style="fill:#7a7a83; stroke:none;" d="M15 60L16 61L15 60z"/>
<path style="fill:#a3a3a2; stroke:none;" d="M27 60L28 61L27 60z"/>
<path style="fill:#838382; stroke:none;" d="M31 60L32 61L31 60z"/>
<path style="fill:#d0d0d2; stroke:none;" d="M35 60L36 61L35 60z"/>
<path style="fill:#787881; stroke:none;" d="M49 60L50 61L49 60z"/>
<path style="fill:#585881; stroke:none;" d="M66 60L67 61L66 60z"/>
<path style="fill:#7a7c7b; stroke:none;" d="M71 60L72 61L71 60z"/>
<path style="fill:#000103; stroke:none;" d="M72 61.0471C67.7373 62.9979 64.2553 67.7447 61 71C53.9031 78.0968 45.3291 84.9559 39.3179 93C36.2978 97.0415 37.2776 104.978 44.0008 103.149C48.3548 101.964 51.9462 97.0527 55 94C62.4426 86.5603 72.8123 78.9414 78.3958 70C81.2982 65.3523 77.9871 58.307 72 61.0471z"/>
<path style="fill:#abab9a; stroke:none;" d="M257 60L258 61L257 60z"/>
<path style="fill:#b9b99e; stroke:none;" d="M260 60L261 61L260 60z"/>
<path style="fill:#484887; stroke:none;" d="M294 60L295 61L294 60z"/>
<path style="fill:#9c9d97; stroke:none;" d="M345 60L346 61L345 60z"/>
<path style="fill:#ffffff; stroke:none;" d="M346.001 60.6235C338.677 61.8704 336.152 69.4774 336.015 76C335.788 86.8452 342.475 95.1211 353.981 92.6559C360.207 91.3219 359 84.9966 359 80C359 70.8966 359.333 58.3536 346.001 60.6235z"/>
<path style="fill:#828292; stroke:none;" d="M349 60L350 61L349 60z"/>
<path style="fill:#a2a2a1; stroke:none;" d="M26 61L27 62L26 61z"/>
<path style="fill:#595984; stroke:none;" d="M35 61L36 62L35 61z"/>
<path style="fill:#686884; stroke:none;" d="M39 61L40 62L39 61z"/>
<path style="fill:#777781; stroke:none;" d="M48 61L49 62L48 61z"/>
<path style="fill:#595981; stroke:none;" d="M65 61L66 62L65 61z"/>
<path style="fill:#3c3d3f; stroke:none;" d="M70 61L71 62L70 61z"/>
<path style="fill:#a1a1a1; stroke:none;" d="M78 61L79 62L78 61z"/>
<path style="fill:#e0e0bc; stroke:none;" d="M253 61L254 62L253 61z"/>
<path style="fill:#b1b19b; stroke:none;" d="M342 61L343 62L342 61z"/>
<path style="fill:#cdcdab; stroke:none;" d="M3 62L4 63L3 62z"/>
<path style="fill:#4c4c84; stroke:none;" d="M14 62L15 63L14 62z"/>
<path style="fill:#a2a2a3; stroke:none;" d="M25 62L26 63L25 62z"/>
<path style="fill:#b0b0b0; stroke:none;" d="M39 62L40 63L39 62z"/>
<path style="fill:#777781; stroke:none;" d="M47 62L48 63L47 62z"/>
<path style="fill:#595981; stroke:none;" d="M64 62L65 63L64 62z"/>
<path style="fill:#3c3c3c; stroke:none;" d="M69 62L70 63L69 62z"/>
<path style="fill:#c2c2c2; stroke:none;" d="M79 62L80 63L79 62z"/>
<path style="fill:#74748f; stroke:none;" d="M250 62L251 63L250 62z"/>
<path style="fill:#b6b69c; stroke:none;" d="M265 62L266 63L265 62z"/>
<path style="fill:#313183; stroke:none;" d="M3 63L4 64L3 63z"/>
<path style="fill:#999998; stroke:none;" d="M14 63L15 64L14 63z"/>
<path style="fill:#a2a2a1; stroke:none;" d="M24 63L25 64L24 63z"/>
<path style="fill:#828282; stroke:none;" d="M34 63L35 64L34 63z"/>
<path style="fill:#767681; stroke:none;" d="M46 63L47 64L46 63z"/>
<path style="fill:#555756; stroke:none;" d="M63 63L64 64L63 63z"/>
<path style="fill:#3c3c3e; stroke:none;" d="M68 63L69 64L68 63z"/>
<path style="fill:#dbdbdb; stroke:none;" d="M74.6667 63.3333C74.2222 63.7778 75.2778 63.7222 75.3333 63.6667C75.7778 63.2222 74.7222 63.2778 74.6667 63.3333z"/>
<path style="fill:#2f2f2f; stroke:none;" d="M76 63L77 64L76 63z"/>
<path style="fill:#999997; stroke:none;" d="M152 63L153 64L152 63z"/>
<path style="fill:#414186; stroke:none;" d="M266 63L267 64L266 63z"/>
<path style="fill:#a2a2a1; stroke:none;" d="M23 64L24 65L23 64z"/>
<path style="fill:#727284; stroke:none;" d="M38 64L39 65L38 64z"/>
<path style="fill:#787881; stroke:none;" d="M45 64L46 65L45 64z"/>
<path style="fill:#565656; stroke:none;" d="M62 64L63 65L62 64z"/>
<path style="fill:#3b3b3d; stroke:none;" d="M67 64L68 65L67 64z"/>
<path style="fill:#ffffff; stroke:none;" d="M40 100C45.2876 99.1841 48.3185 95.6739 52 92L68 76C71.6747 72.3237 75.5681 69.1015 77 64C71.7124 64.8159 68.6815 68.3261 65 72L49 88C45.3253 91.6763 41.4319 94.8985 40 100z"/>
<path style="fill:#7f8180; stroke:none;" d="M80 64L81 65L80 64z"/>
<path style="fill:#3e3e85; stroke:none;" d="M245 64L246 65L245 64z"/>
<path style="fill:#a2a398; stroke:none;" d="M309 64L310 65L309 64z"/>
<path style="fill:#4c4c84; stroke:none;" d="M13 65L14 66L13 65z"/>
<path style="fill:#a3a3a4; stroke:none;" d="M22 65L23 66L22 65z"/>
<path style="fill:#777781; stroke:none;" d="M44 65L45 66L44 65z"/>
<path style="fill:#555555; stroke:none;" d="M61 65L62 66L61 65z"/>
<path style="fill:#3c3c3c; stroke:none;" d="M66 65L67 66L66 65z"/>
<path style="fill:#353535; stroke:none;" d="M77 65L78 66L77 65z"/>
<path style="fill:#191919; stroke:none;" d="M80.3333 65.6667C80.2778 65.7222 80.2222 66.7778 80.6667 66.3333C80.7222 66.2778 80.7778 65.2222 80.3333 65.6667z"/>
<path style="fill:#dadab7; stroke:none;" d="M2 66L3 67L2 66z"/>
<path style="fill:#898987; stroke:none;" d="M13 66L14 67L13 66z"/>
<path style="fill:#a3a3a2; stroke:none;" d="M21 66L22 67L21 66z"/>
<path style="fill:#9d9d9c; stroke:none;" d="M32 66L33 67L32 66z"/>
<path style="fill:#424283; stroke:none;" d="M37 66L38 67L37 66z"/>
<path style="fill:#777781; stroke:none;" d="M43 66L44 67L43 66z"/>
<path style="fill:#575781; stroke:none;" d="M60 66L61 67L60 66z"/>
<path style="fill:#3c3c3c; stroke:none;" d="M65 66L66 67L65 66z"/>
<path style="fill:#6e6e8e; stroke:none;" d="M2 67L3 68L2 67z"/>
<path style="fill:#d7d7d7; stroke:none;" d="M13 67L13 70C13.6961 68.4463 13.6961 68.5537 13 67z"/>
<path style="fill:#a3a3a2; stroke:none;" d="M20 67L21 68L20 67z"/>
<path style="fill:#777781; stroke:none;" d="M42 67L43 68L42 67z"/>
<path style="fill:#585881; stroke:none;" d="M59 67L60 68L59 67z"/>
<path style="fill:#3d3d3d; stroke:none;" d="M64 67L65 68L64 67z"/>
<path style="fill:#454545; stroke:none;" d="M80 67L81 68L80 67z"/>
<path style="fill:#a2a2a1; stroke:none;" d="M19 68L20 69L19 68z"/>
<path style="fill:#a1a1a0; stroke:none;" d="M36 68L37 69L36 68z"/>
<path style="fill:#767681; stroke:none;" d="M41 68L42 69L41 68z"/>
<path style="fill:#c0c0bf; stroke:none;" d="M48 68L49 69L48 68z"/>
<path style="fill:#575781; stroke:none;" d="M58 68L59 69L58 68z"/>
<path style="fill:#3c3c3c; stroke:none;" d="M63 68L64 69L63 68z"/>
<path style="fill:#d3d3d3; stroke:none;" d="M80 68L81 69L80 68z"/>
<path style="fill:#fafccf; stroke:none;" d="M295 68L295 114C296.661 110.041 296 105.26 296 101L296 80C296 76.0172 296.552 71.6987 295 68z"/>
<path style="fill:#6c6c84; stroke:none;" d="M12.3333 69.6667C12.2778 69.7222 12.2222 70.7778 12.6667 70.3333C12.7222 70.2778 12.7778 69.2222 12.3333 69.6667z"/>
<path style="fill:#a2a2a1; stroke:none;" d="M18 69L19 70L18 69z"/>
<path style="fill:#696984; stroke:none;" d="M35 69L36 70L35 69z"/>
<path style="fill:#767681; stroke:none;" d="M40 69L41 70L40 69z"/>
<path style="fill:#868684; stroke:none;" d="M49 69L50 70L49 69z"/>
<path style="fill:#565681; stroke:none;" d="M57 69L58 70L57 69z"/>
<path style="fill:#3d3d3d; stroke:none;" d="M62 69L63 70L62 69z"/>
<path style="fill:#777777; stroke:none;" d="M79 69L80 70L79 69z"/>
<path style="fill:#4c4c83; stroke:none;" d="M84.6667 69.3333C84.2222 69.7778 85.2778 69.7222 85.3333 69.6667C85.7778 69.2222 84.7222 69.2778 84.6667 69.3333z"/>
<path style="fill:#777890; stroke:none;" d="M268 69L268 114C269.552 110.301 269 105.983 269 102L269 82C269 77.7397 269.661 72.9586 268 69z"/>
<path style="fill:#a3a3a2; stroke:none;" d="M17 70L18 71L17 70z"/>
<path style="fill:#313182; stroke:none;" d="M29 70L30 71L29 70z"/>
<path style="fill:#4e4e84; stroke:none;" d="M34 70L35 71L34 70z"/>
<path style="fill:#7a7a81; stroke:none;" d="M39 70L40 71L39 70z"/>
<path style="fill:#373780; stroke:none;" d="M46 70L47 71L46 70z"/>
<path style="fill:#585881; stroke:none;" d="M56 70L57 71L56 70z"/>
<path style="fill:#3c3c3c; stroke:none;" d="M61 70L62 71L61 70z"/>
<path style="fill:#656565; stroke:none;" d="M78 70L79 71L78 70z"/>
<path style="fill:#393982; stroke:none;" d="M83 70L84 71L83 70z"/>
<path style="fill:#4f4f84; stroke:none;" d="M86 70L87 71L86 70z"/>
<path style="fill:#a3a3a2; stroke:none;" d="M12.3333 71.6667C12.2778 71.7222 12.2222 72.7778 12.6667 72.3333C12.7222 72.2778 12.7778 71.2222 12.3333 71.6667z"/>
<path style="fill:#a6a7a8; stroke:none;" d="M16 71L17 72L16 71z"/>
<path style="fill:#494984; stroke:none;" d="M28 71L29 72L28 71z"/>
<path style="fill:#393982; stroke:none;" d="M33 71L34 72L33 71z"/>
<path style="fill:#777981; stroke:none;" d="M38 71L39 72L38 71z"/>
<path style="fill:#454680; stroke:none;" d="M47 71L48 72L47 71z"/>
<path style="fill:#565781; stroke:none;" d="M55 71L56 72L55 71z"/>
<path style="fill:#3c3c3e; stroke:none;" d="M60 71L61 72L60 71z"/>
<path style="fill:#666666; stroke:none;" d="M77 71L78 72L77 71z"/>
<path style="fill:#b2b2b2; stroke:none;" d="M83 71L84 72L83 71z"/>
<path style="fill:#4e4f84; stroke:none;" d="M87 71L88 72L87 71z"/>
<path style="fill:#c7c7a7; stroke:none;" d="M153 71L154 72L153 71z"/>
<path style="fill:#ffffff; stroke:none;" d="M386 98L407 98C410.189 97.9988 413.999 98.4493 416.891 96.821C422.457 93.6882 423.277 77.8936 418.566 73.7276C413.854 69.5599 404.764 71 399 71C395.849 71 389.261 69.7837 387.028 72.6034C385.532 74.492 386.005 77.764 386 80L386 98z"/>
<path style="fill:#a1fcff; stroke:none;" d="M413 71L414 72L413 71z"/>
<path style="fill:#92f3ff; stroke:none;" d="M443 71L444 72L443 71z"/>
<path style="fill:#cacaca; stroke:none;" d="M15 72L16 73L15 72z"/>
<path style="fill:#4c4c84; stroke:none;" d="M27 72L28 73L27 72z"/>
<path style="fill:#383882; stroke:none;" d="M32 72L33 73L32 72z"/>
<path style="fill:#797b81; stroke:none;" d="M37 72L38 73L37 72z"/>
<path style="fill:#939393; stroke:none;" d="M48 72L49 73L48 72z"/>
<path style="fill:#717181; stroke:none;" d="M54 72L55 73L54 72z"/>
<path style="fill:#3b3c3e; stroke:none;" d="M59 72L60 73L59 72z"/>
<path style="fill:#656565; stroke:none;" d="M76 72L77 73L76 72z"/>
<path style="fill:#b2b2b0; stroke:none;" d="M84 72L85 73L84 72z"/>
<path style="fill:#4c4c83; stroke:none;" d="M88 72L89 73L88 72z"/>
<path style="fill:#3e3f86; stroke:none;" d="M153 72L154 73L153 72z"/>
<path style="fill:#a1a198; stroke:none;" d="M1 73L2 74L1 73z"/>
<path style="fill:#d5d5d5; stroke:none;" d="M12 73L12 81C13.1614 78.2302 13.1614 75.7699 12 73z"/>
<path style="fill:#4b4b84; stroke:none;" d="M26 73L27 74L26 73z"/>
<path style="fill:#3a3a83; stroke:none;" d="M31 73L32 74L31 73z"/>
<path style="fill:#7a7c81; stroke:none;" d="M36 73L37 74L36 73z"/>
<path style="fill:#5d5d81; stroke:none;" d="M50 73C51.2484 73.6848 51.5484 73.7488 53 74C51.7517 73.3152 51.4516 73.2512 50 73z"/>
<path style="fill:#cacaca; stroke:none;" d="M53 73L54 74L53 73z"/>
<path style="fill:#3d3d3f; stroke:none;" d="M58 73L59 74L58 73z"/>
<path style="fill:#666666; stroke:none;" d="M75 73L76 74L75 73z"/>
<path style="fill:#9a9a9b; stroke:none;" d="M85 73L86 74L85 73z"/>
<path style="fill:#4c4c83; stroke:none;" d="M89 73L90 74L89 73z"/>
<path style="fill:#b0b0b0; stroke:none;" d="M14 74L14 78C14.7102 76.2405 14.7102 75.7595 14 74z"/>
<path style="fill:#4c4c84; stroke:none;" d="M25 74L26 75L25 74z"/>
<path style="fill:#3a3a83; stroke:none;" d="M30 74L31 75L30 74z"/>
<path style="fill:#787881; stroke:none;" d="M35 74L36 75L35 74z"/>
<path style="fill:#3d3d3d; stroke:none;" d="M57 74L58 75L57 74z"/>
<path style="fill:#666666; stroke:none;" d="M74 74L75 75L74 74z"/>
<path style="fill:#4e4e84; stroke:none;" d="M90 74L91 75L90 74z"/>
<path style="fill:#b9b9b9; stroke:none;" d="M18 75L19 76L18 75z"/>
<path style="fill:#4a4a84; stroke:none;" d="M24 75L25 76L24 75z"/>
<path style="fill:#3b3b83; stroke:none;" d="M29 75L30 76L29 75z"/>
<path style="fill:#787881; stroke:none;" d="M34 75L35 76L34 75z"/>
<path style="fill:#3c3c3c; stroke:none;" d="M56 75L57 76L56 75z"/>
<path style="fill:#666666; stroke:none;" d="M73 75L74 76L73 75z"/>
<path style="fill:#4c4c83; stroke:none;" d="M91 75L92 76L91 75z"/>
<path style="fill:#494b84; stroke:none;" d="M23 76L24 77L23 76z"/>
<path style="fill:#383882; stroke:none;" d="M28 76L29 77L28 76z"/>
<path style="fill:#787881; stroke:none;" d="M33 76L34 77L33 76z"/>
<path style="fill:#3e3e3e; stroke:none;" d="M55 76L56 77L55 76z"/>
<path style="fill:#666666; stroke:none;" d="M72 76L73 77L72 76z"/>
<path style="fill:#333482; stroke:none;" d="M88 76L89 77L88 76z"/>
<path style="fill:#444483; stroke:none;" d="M22 77L23 78L22 77z"/>
<path style="fill:#383882; stroke:none;" d="M27 77L28 78L27 77z"/>
<path style="fill:#787a81; stroke:none;" d="M32 77L33 78L32 77z"/>
<path style="fill:#3d3d3d; stroke:none;" d="M54 77L55 78L54 77z"/>
<path style="fill:#666666; stroke:none;" d="M71 77L72 78L71 77z"/>
<path style="fill:#797983; stroke:none;" d="M87 77L88 78L87 77z"/>
<path style="fill:#b5b5b5; stroke:none;" d="M89 77L90 78L89 77z"/>
<path style="fill:#bbbbbb; stroke:none;" d="M19.6667 78.3333C19.2222 78.7777 20.2778 78.7222 20.3333 78.6667C20.7778 78.2222 19.7222 78.2778 19.6667 78.3333z"/>
<path style="fill:#393983; stroke:none;" d="M26 78L27 79L26 78z"/>
<path style="fill:#797981; stroke:none;" d="M31 78L32 79L31 78z"/>
<path style="fill:#3c3c3c; stroke:none;" d="M53 78L54 79L53 78z"/>
<path style="fill:#656565; stroke:none;" d="M70 78L71 79L70 78z"/>
<path style="fill:#787883; stroke:none;" d="M86 78L87 79L86 78z"/>
<path style="fill:#b3b3b3; stroke:none;" d="M90 78L91 79L90 78z"/>
<path style="fill:#656584; stroke:none;" d="M92 78L93 79L92 78z"/>
<path style="fill:#393982; stroke:none;" d="M25 79L26 80L25 79z"/>
<path style="fill:#787881; stroke:none;" d="M30 79L31 80L30 79z"/>
<path style="fill:#3d3d3f; stroke:none;" d="M52 79L53 80L52 79z"/>
<path style="fill:#666666; stroke:none;" d="M69 79L70 80L69 79z"/>
<path style="fill:#787883; stroke:none;" d="M85 79L86 80L85 79z"/>
<path style="fill:#c4c4c6; stroke:none;" d="M92 79L92 98C94.0196 93.1871 94.0196 83.8129 92 79z"/>
<path style="fill:#4b4b83; stroke:none;" d="M24 80L25 81L24 80z"/>
<path style="fill:#797b81; stroke:none;" d="M29 80L30 81L29 80z"/>
<path style="fill:#3c3d3f; stroke:none;" d="M51 80L52 81L51 80z"/>
<path style="fill:#656565; stroke:none;" d="M68 80L69 81L68 80z"/>
<path style="fill:#787883; stroke:none;" d="M84 80L85 81L84 80z"/>
<path style="fill:#c8ffff; stroke:none;" d="M421 80L421 89C422.256 86.0059 422.256 82.9941 421 80z"/>
<path style="fill:#313183; stroke:none;" d="M1 81L2 82L1 81z"/>
<path style="fill:#b2b2b2; stroke:none;" d="M12 81L12 84C12.6961 82.4463 12.6961 82.5537 12 81z"/>
<path style="fill:#5f5f84; stroke:none;" d="M18 81L19 82L18 81z"/>
<path style="fill:#afafaf; stroke:none;" d="M23 81L24 82L23 81z"/>
<path style="fill:#7a7c81; stroke:none;" d="M28 81L29 82L28 81z"/>
<path style="fill:#3d3d3d; stroke:none;" d="M50 81L51 82L50 81z"/>
<path style="fill:#656565; stroke:none;" d="M67 81L68 82L67 81z"/>
<path style="fill:#787883; stroke:none;" d="M83 81L84 82L83 81z"/>
<path style="fill:#c8c8a7; stroke:none;" d="M1 82L2 83L1 82z"/>
<path style="fill:#787881; stroke:none;" d="M27 82L28 83L27 82z"/>
<path style="fill:#3c3c3c; stroke:none;" d="M49 82L50 83L49 82z"/>
<path style="fill:#646464; stroke:none;" d="M66 82L67 83L66 82z"/>
<path style="fill:#787883; stroke:none;" d="M82 82L83 83L82 82z"/>
<path style="fill:#787881; stroke:none;" d="M26 83L27 84L26 83z"/>
<path style="fill:#3b3b3b; stroke:none;" d="M48 83L49 84L48 83z"/>
<path style="fill:#666666; stroke:none;" d="M65 83L66 84L65 83z"/>
<path style="fill:#777783; stroke:none;" d="M81 83L82 84L81 83z"/>
<path style="fill:#5e5e84; stroke:none;" d="M12.3333 84.6667C12.2778 84.7222 12.2222 85.7778 12.6667 85.3333C12.7222 85.2778 12.7778 84.2222 12.3333 84.6667z"/>
<path style="fill:#777781; stroke:none;" d="M25 84L26 85L25 84z"/>
<path style="fill:#3c3c3c; stroke:none;" d="M47 84L48 85L47 84z"/>
<path style="fill:#656565; stroke:none;" d="M64 84L65 85L64 84z"/>
<path style="fill:#595984; stroke:none;" d="M80 84L81 85L80 84z"/>
<path style="fill:#e5e5e5; stroke:none;" d="M13 85L13 88C13.6961 86.4463 13.6961 86.5537 13 85z"/>
<path style="fill:#797981; stroke:none;" d="M24 85L25 86L24 85z"/>
<path style="fill:#3c3c3c; stroke:none;" d="M46 85L47 86L46 85z"/>
<path style="fill:#666666; stroke:none;" d="M63 85L64 86L63 85z"/>
<path style="fill:#5a5a84; stroke:none;" d="M79 85L80 86L79 85z"/>
<path style="fill:#989896; stroke:none;" d="M337 85L338 86L337 85z"/>
<path style="fill:#434380; stroke:none;" d="M24 86L25 87L24 86z"/>
<path style="fill:#3d3d3f; stroke:none;" d="M45 86L46 87L45 86z"/>
<path style="fill:#656565; stroke:none;" d="M62 86L63 87L62 86z"/>
<path style="fill:#5a5a84; stroke:none;" d="M78 86L79 87L78 86z"/>
<path style="fill:#272781; stroke:none;" d="M2 87L3 88L2 87z"/>
<path style="fill:#434380; stroke:none;" d="M25 87L26 88L25 87z"/>
<path style="fill:#3d3d3f; stroke:none;" d="M44 87L45 88L44 87z"/>
<path style="fill:#656565; stroke:none;" d="M61 87L62 88L61 87z"/>
<path style="fill:#787883; stroke:none;" d="M77 87L78 88L77 87z"/>
<path style="fill:#929295; stroke:none;" d="M2 88L3 89L2 88z"/>
<path style="fill:#ababaa; stroke:none;" d="M13 88L14 89L13 88z"/>
<path style="fill:#5e5e81; stroke:none;" d="M26 88L27 89L26 88z"/>
<path style="fill:#3c3d3f; stroke:none;" d="M43 88L44 89L43 88z"/>
<path style="fill:#646464; stroke:none;" d="M60 88L61 89L60 88z"/>
<path style="fill:#787883; stroke:none;" d="M76 88L77 89L76 88z"/>
<path style="fill:#7a7a83; stroke:none;" d="M13 89L14 90L13 89z"/>
<path style="fill:#3d3d3d; stroke:none;" d="M42 89L43 90L42 89z"/>
<path style="fill:#646464; stroke:none;" d="M59 89L60 90L59 89z"/>
<path style="fill:#787883; stroke:none;" d="M75 89L76 90L75 89z"/>
<path style="fill:#262680; stroke:none;" d="M13 90L14 91L13 90z"/>
<path style="fill:#3d3d3d; stroke:none;" d="M41 90L42 91L41 90z"/>
<path style="fill:#646464; stroke:none;" d="M58 90L59 91L58 90z"/>
<path style="fill:#777783; stroke:none;" d="M74 90L75 91L74 90z"/>
<path style="fill:#abab9a; stroke:none;" d="M309 90L310 91L309 90z"/>
<path style="fill:#c1c1c1; stroke:none;" d="M14 91L15 92L14 91z"/>
<path style="fill:#3e3e3e; stroke:none;" d="M40 91L41 92L40 91z"/>
<path style="fill:#666666; stroke:none;" d="M57 91L58 92L57 91z"/>
<path style="fill:#777783; stroke:none;" d="M73 91L74 92L73 91z"/>
<path style="fill:#b5b59c; stroke:none;" d="M342 91L343 92L342 91z"/>
<path style="fill:#9d9d97; stroke:none;" d="M358 91L359 92L358 91z"/>
<path style="fill:#6e6e8e; stroke:none;" d="M3 92L4 93L3 92z"/>
<path style="fill:#858583; stroke:none;" d="M14 92L15 93L14 92z"/>
<path style="fill:#3d3d3d; stroke:none;" d="M39 92L40 93L39 92z"/>
<path style="fill:#656565; stroke:none;" d="M56 92L57 93L56 92z"/>
<path style="fill:#767683; stroke:none;" d="M72 92L73 93L72 92z"/>
<path style="fill:#a1a298; stroke:none;" d="M355 92L356 93L355 92z"/>
<path style="fill:#404040; stroke:none;" d="M38 93L39 94L38 93z"/>
<path style="fill:#666666; stroke:none;" d="M55 93L56 94L55 93z"/>
<path style="fill:#777783; stroke:none;" d="M71 93L72 94L71 93z"/>
<path style="fill:#2b2c82; stroke:none;" d="M310 93L311 94L310 93z"/>
<path style="fill:#7e7e91; stroke:none;" d="M348 93L349 94L348 93z"/>
<path style="fill:#b5b59c; stroke:none;" d="M349.667 93.3333C349.222 93.7778 350.278 93.7222 350.333 93.6667C350.778 93.2223 349.722 93.2777 349.667 93.3333z"/>
<path style="fill:#494987; stroke:none;" d="M351 93L352 94L351 93z"/>
<path style="fill:#a1fcff; stroke:none;" d="M420 93L421 94L420 93z"/>
<path style="fill:#b2b2b2; stroke:none;" d="M15 94L16 95L15 94z"/>
<path style="fill:#7a7a7a; stroke:none;" d="M37 94L38 95L37 94z"/>
<path style="fill:#656565; stroke:none;" d="M54 94L55 95L54 94z"/>
<path style="fill:#777783; stroke:none;" d="M70 94L71 95L70 94z"/>
<path style="fill:#323283; stroke:none;" d="M4 95L5 96L4 95z"/>
<path style="fill:#5d5d84; stroke:none;" d="M15 95L16 96L15 95z"/>
<path style="fill:#656565; stroke:none;" d="M53 95L54 96L53 95z"/>
<path style="fill:#767683; stroke:none;" d="M69 95L70 96L69 95z"/>
<path style="fill:#e0e0ba; stroke:none;" d="M4 96L5 97L4 96z"/>
<path style="fill:#c8c8c8; stroke:none;" d="M16 96L17 97L16 96z"/>
<path style="fill:#787a79; stroke:none;" d="M36 96L36 99C36.6961 97.4463 36.6961 97.5537 36 96z"/>
<path style="fill:#656565; stroke:none;" d="M52 96L53 97L52 96z"/>
<path style="fill:#767683; stroke:none;" d="M68 96L69 97L68 96z"/>
<path style="fill:#6c6c84; stroke:none;" d="M16 97L17 98L16 97z"/>
<path style="fill:#646464; stroke:none;" d="M51 97L52 98L51 97z"/>
<path style="fill:#767683; stroke:none;" d="M67 97L68 98L67 97z"/>
<path style="fill:#6e6e8e; stroke:none;" d="M5 98L6 99L5 98z"/>
<path style="fill:#c8c8c8; stroke:none;" d="M17 98L18 99L17 98z"/>
<path style="fill:#656565; stroke:none;" d="M50 98L51 99L50 98z"/>
<path style="fill:#777783; stroke:none;" d="M66 98L67 99L66 98z"/>
<path style="fill:#868684; stroke:none;" d="M92 98L93 99L92 98z"/>
<path style="fill:#a6a699; stroke:none;" d="M312 98L313 99L312 98z"/>
<path style="fill:#59b7d6; stroke:none;" d="M386 98L386 114C387.812 109.681 387.812 102.319 386 98z"/>
<path style="fill:#eeffff; stroke:none;" d="M387 98C392.959 100.5 401.564 99 408 99C402.041 96.4995 393.436 98 387 98z"/>
<path style="fill:#99f6ff; stroke:none;" d="M408 98C409.248 98.6848 409.548 98.7488 411 99C409.752 98.3152 409.452 98.2512 408 98z"/>
<path style="fill:#5c5c84; stroke:none;" d="M17 99L18 100L17 99z"/>
<path style="fill:#b4b4b4; stroke:none;" d="M36 99L37 100L36 99z"/>
<path style="fill:#666666; stroke:none;" d="M49 99L50 100L49 99z"/>
<path style="fill:#767683; stroke:none;" d="M65 99L66 100L65 99z"/>
<path style="fill:#383882; stroke:none;" d="M92 99L93 100L92 99z"/>
<path style="fill:#93f3ff; stroke:none;" d="M442 99L443 100L442 99z"/>
<path style="fill:#afafaf; stroke:none;" d="M18 100L19 101L18 100z"/>
<path style="fill:#757575; stroke:none;" d="M41.6667 100.333C41.2222 100.778 42.2778 100.722 42.3333 100.667C42.7778 100.222 41.7222 100.278 41.6667 100.333z"/>
<path style="fill:#636363; stroke:none;" d="M48 100L49 101L48 100z"/>
<path style="fill:#767683; stroke:none;" d="M64 100L65 101L64 100z"/>
<path style="fill:#bbbbbb; stroke:none;" d="M91 100L92 101L91 100z"/>
<path style="fill:#252580; stroke:none;" d="M18 101L19 102L18 101z"/>
<path style="fill:#636363; stroke:none;" d="M47 101L48 102L47 101z"/>
<path style="fill:#777783; stroke:none;" d="M63 101L64 102L63 101z"/>
<path style="fill:#404083; stroke:none;" d="M91 101L92 102L91 101z"/>
<path style="fill:#363684; stroke:none;" d="M314 101L315 102L314 101z"/>
<path style="fill:#7a7a83; stroke:none;" d="M19 102L20 103L19 102z"/>
<path style="fill:#7a7a7a; stroke:none;" d="M46 102L47 103L46 102z"/>
<path style="fill:#777783; stroke:none;" d="M62 102L63 103L62 102z"/>
<path style="fill:#898987; stroke:none;" d="M90 102L91 103L90 102z"/>
<path style="fill:#e4e4be; stroke:none;" d="M7 103L8 104L7 103z"/>
<path style="fill:#b3b3b3; stroke:none;" d="M20 103L21 104L20 103z"/>
<path style="fill:#5b5b5b; stroke:none;" d="M40 103L41 104L40 103z"/>
<path style="fill:#303030; stroke:none;" d="M44 103L45 104L44 103z"/>
<path style="fill:#d4d4d4; stroke:none;" d="M45 103L46 104L45 103z"/>
<path style="fill:#767683; stroke:none;" d="M61 103L62 104L61 103z"/>
<path style="fill:#bcbcbc; stroke:none;" d="M89 103L90 104L89 103z"/>
<path style="fill:#767683; stroke:none;" d="M60 104L61 105L60 104z"/>
<path style="fill:#262680; stroke:none;" d="M89 104L90 105L89 104z"/>
<path style="fill:#3d3d85; stroke:none;" d="M316 104L317 105L316 104z"/>
<path style="fill:#4c4c83; stroke:none;" d="M21 105L22 106L21 105z"/>
<path style="fill:#767683; stroke:none;" d="M59 105L60 106L59 105z"/>
<path style="fill:#5d5d84; stroke:none;" d="M88 105L89 106L88 105z"/>
<path style="fill:#313283; stroke:none;" d="M317 105L318 106L317 105z"/>
<path style="fill:#4d4d88; stroke:none;" d="M9 106L10 107L9 106z"/>
<path style="fill:#707084; stroke:none;" d="M22 106L23 107L22 106z"/>
<path style="fill:#777783; stroke:none;" d="M58 106L59 107L58 106z"/>
<path style="fill:#7a7a83; stroke:none;" d="M87 106L88 107L87 106z"/>
<path style="fill:#4f4f88; stroke:none;" d="M318 106L319 107L318 106z"/>
<path style="fill:#5a7b8f; stroke:none;" d="M367 106L368 107L367 106z"/>
<path style="fill:#9efaff; stroke:none;" d="M436 106L437 107L436 106z"/>
<path style="fill:#828282; stroke:none;" d="M23 107L24 108L23 107z"/>
<path style="fill:#767683; stroke:none;" d="M57 107L58 108L57 107z"/>
<path style="fill:#91918f; stroke:none;" d="M86 107L87 108L86 107z"/>
<path style="fill:#6e6e8e; stroke:none;" d="M319 107L320 108L319 107z"/>
<path style="fill:#213b85; stroke:none;" d="M368 107L369 108L368 107z"/>
<path style="fill:#bebe9f; stroke:none;" d="M10 108L11 109L10 108z"/>
<path style="fill:#8a8a88; stroke:none;" d="M24 108L25 109L24 108z"/>
<path style="fill:#767683; stroke:none;" d="M56 108L57 109L56 108z"/>
<path style="fill:#989897; stroke:none;" d="M85 108L86 109L85 108z"/>
<path style="fill:#898993; stroke:none;" d="M320 108L321 109L320 108z"/>
<path style="fill:#5f8491; stroke:none;" d="M364 108L365 109L364 108z"/>
<path style="fill:#323283; stroke:none;" d="M11 109L12 110L11 109z"/>
<path style="fill:#898987; stroke:none;" d="M25 109L26 110L25 109z"/>
<path style="fill:#777783; stroke:none;" d="M55 109L56 110L55 109z"/>
<path style="fill:#949493; stroke:none;" d="M84 109L85 110L84 109z"/>
<path style="fill:#7eaeaa; stroke:none;" d="M369 109L370 110L369 109z"/>
<path style="fill:#7d7d83; stroke:none;" d="M26 110L27 111L26 110z"/>
<path style="fill:#777783; stroke:none;" d="M54 110L55 111L54 110z"/>
<path style="fill:#898987; stroke:none;" d="M83 110L84 111L83 110z"/>
<path style="fill:#6f6f8e; stroke:none;" d="M323 110L324 111L323 110z"/>
<path style="fill:#696984; stroke:none;" d="M27 111L28 112L27 111z"/>
<path style="fill:#505084; stroke:none;" d="M49 111L50 112L49 111z"/>
<path style="fill:#767683; stroke:none;" d="M53 111L54 112L53 111z"/>
<path style="fill:#747483; stroke:none;" d="M82 111L83 112L82 111z"/>
<path style="fill:#828292; stroke:none;" d="M359 111L360 112L359 111z"/>
<path style="fill:#939395; stroke:none;" d="M13 112L14 113L13 112z"/>
<path style="fill:#4b4b84; stroke:none;" d="M28 112L29 113L28 112z"/>
<path style="fill:#d1d1d1; stroke:none;" d="M29 112L30 113L29 112z"/>
<path style="fill:#505084; stroke:none;" d="M50 112L51 113L50 112z"/>
<path style="fill:#767683; stroke:none;" d="M52 112L53 113L52 112z"/>
<path style="fill:#555584; stroke:none;" d="M81 112L82 113L81 112z"/>
<path style="fill:#3e3e85; stroke:none;" d="M357 112L358 113L357 112z"/>
<path style="fill:#759f9c; stroke:none;" d="M371 112L372 113L371 112z"/>
<path style="fill:#414186; stroke:none;" d="M14 113L15 114L14 113z"/>
<path style="fill:#252580; stroke:none;" d="M29 113L30 114L29 113z"/>
<path style="fill:#a5a5a4; stroke:none;" d="M30 113L31 114L30 113z"/>
<path style="fill:#a6a6a5; stroke:none;" d="M51 113L52 114L51 113z"/>
<path style="fill:#ababaa; stroke:none;" d="M79 113L80 114L79 113z"/>
<path style="fill:#2a2a81; stroke:none;" d="M80 113L81 114L80 113z"/>
<path style="fill:#363784; stroke:none;" d="M330 113L331 114L330 113z"/>
<path style="fill:#e0e0bc; stroke:none;" d="M355 113L356 114L355 113z"/>
<path style="fill:#c8ffff; stroke:none;" d="M388 113C391.163 114.327 394.586 114 398 114C394.837 112.673 391.414 113 388 113z"/>
<path style="fill:#707084; stroke:none;" d="M31 114L32 115L31 114z"/>
<path style="fill:#747483; stroke:none;" d="M78 114L79 115L78 114z"/>
<path style="fill:#d6d6b6; stroke:none;" d="M333 114L334 115L333 114z"/>
<path style="fill:#525289; stroke:none;" d="M351 114L352 115L351 114z"/>
<path style="fill:#b0ffff; stroke:none;" d="M398 114L399 115L398 114z"/>
<path style="fill:#a6ffff; stroke:none;" d="M423 114L424 115L423 114z"/>
<path style="fill:#373782; stroke:none;" d="M32 115L33 116L32 115z"/>
<path style="fill:#9e9e9d; stroke:none;" d="M33 115L34 116L33 115z"/>
<path style="fill:#a2a2a1; stroke:none;" d="M76 115L77 116L76 115z"/>
<path style="fill:#383882; stroke:none;" d="M77 115L78 116L77 115z"/>
<path style="fill:#555584; stroke:none;" d="M34 116L35 117L34 116z"/>
<path style="fill:#b1b1b1; stroke:none;" d="M35 116L36 117L35 116z"/>
<path style="fill:#b7b7b7; stroke:none;" d="M74 116L75 117L74 116z"/>
<path style="fill:#595984; stroke:none;" d="M75 116L76 117L75 116z"/>
<path style="fill:#5d5d84; stroke:none;" d="M36 117L37 118L36 117z"/>
<path style="fill:#acacac; stroke:none;" d="M37 117L38 118L37 117z"/>
<path style="fill:#b0b0b0; stroke:none;" d="M72 117L73 118L72 117z"/>
<path style="fill:#5d5d84; stroke:none;" d="M73 117L74 118L73 117z"/>
<path style="fill:#a7ffff; stroke:none;" d="M400 117L401 118L400 117z"/>
<path style="fill:#4c4c83; stroke:none;" d="M38 118L39 119L38 118z"/>
<path style="fill:#929291; stroke:none;" d="M39 118L40 119L39 118z"/>
<path style="fill:#979796; stroke:none;" d="M70 118L71 119L70 118z"/>
<path style="fill:#535384; stroke:none;" d="M71 118L72 119L71 118z"/>
<path style="fill:#262680; stroke:none;" d="M40 119L41 120L40 119z"/>
<path style="fill:#666684; stroke:none;" d="M41 119L42 120L41 119z"/>
<path style="fill:#9e9e9d; stroke:none;" d="M42 119L43 120L42 119z"/>
<path style="fill:#d2d2d2; stroke:none;" d="M43 119L44 120L43 119z"/>
<path style="fill:#a2a2a1; stroke:none;" d="M67 119L68 120L67 119z"/>
<path style="fill:#686884; stroke:none;" d="M68 119L69 120L68 119z"/>
<path style="fill:#2b2b81; stroke:none;" d="M69 119L70 120L69 119z"/>
<path style="fill:#515189; stroke:none;" d="M21 120L22 121L21 120z"/>
<path style="fill:#525284; stroke:none;" d="M43 120C44.2483 120.685 44.5484 120.749 46 121C44.7516 120.315 44.4516 120.251 43 120z"/>
<path style="fill:#c8c8c8; stroke:none;" d="M46 120C47.2483 120.685 47.5484 120.749 49 121C47.7517 120.315 47.4516 120.251 46 120z"/>
<path style="fill:#cacaca; stroke:none;" d="M61 120C62.2483 120.685 62.5484 120.749 64 121C62.7517 120.315 62.4516 120.251 61 120z"/>
<path style="fill:#555584; stroke:none;" d="M64 120C65.2484 120.685 65.5484 120.749 67 121C65.7516 120.315 65.4516 120.251 64 120z"/>
<path style="fill:#3c3c85; stroke:none;" d="M88 120L89 121L88 120z"/>
<path style="fill:#a2fcff; stroke:none;" d="M402 120L403 121L402 120z"/>
<path style="fill:#c8c8a9; stroke:none;" d="M22 121L23 122L22 121z"/>
<path style="fill:#1c1c1c; stroke:none;" d="M46.6667 121.333C46.2222 121.778 47.2778 121.722 47.3333 121.667C47.7778 121.222 46.7222 121.278 46.6667 121.333z"/>
<path style="fill:#4c4c84; stroke:none;" d="M48 121C49.2484 121.685 49.5484 121.749 51 122C49.7517 121.315 49.4516 121.251 48 121z"/>
<path style="fill:#8c8c8a; stroke:none;" d="M51 121C53.6127 122.098 56.1645 121.993 59 122C56.3873 120.902 53.8355 121.007 51 121z"/>
<path style="fill:#4d4d84; stroke:none;" d="M59 121C60.2483 121.685 60.5484 121.749 62 122C60.7517 121.315 60.4516 121.251 59 121z"/>
<path style="fill:#b5b59c; stroke:none;" d="M87 121L88 122L87 121z"/>
<path style="fill:#67678d; stroke:none;" d="M25 123L26 124L25 123z"/>
<path style="fill:#4e4e88; stroke:none;" d="M84 123L85 124L84 123z"/>
<path style="fill:#a6ffff; stroke:none;" d="M404 123L405 124L404 123z"/>
<path style="fill:#b5b59c; stroke:none;" d="M112 124L113 125L112 124z"/>
<path style="fill:#323283; stroke:none;" d="M113 124L114 125L113 124M115 124L116 125L115 124z"/>
<path style="fill:#969696; stroke:none;" d="M116 124L117 125L116 124z"/>
<path style="fill:#8becff; stroke:none;" d="M430 124L431 125L430 124z"/>
<path style="fill:#b9b99d; stroke:none;" d="M28 125L29 126L28 125z"/>
<path style="fill:#a6a699; stroke:none;" d="M81 125L82 126L81 125z"/>
<path style="fill:#9d9d97; stroke:none;" d="M110 125L111 126L110 125z"/>
<path style="fill:#828292; stroke:none;" d="M30 126L31 127L30 126z"/>
<path style="fill:#67678d; stroke:none;" d="M79 126L80 127L79 126z"/>
<path style="fill:#9efbff; stroke:none;" d="M406 126L407 127L406 126z"/>
<path style="fill:#8c8c94; stroke:none;" d="M32 127L33 128L32 127z"/>
<path style="fill:#73738f; stroke:none;" d="M77 127L78 128L77 127z"/>
<path style="fill:#dadab7; stroke:none;" d="M34 128L35 129L34 128z"/>
<path style="fill:#c2c2a3; stroke:none;" d="M75 128L76 129L75 128z"/>
<path style="fill:#73738f; stroke:none;" d="M37 129L38 130L37 129z"/>
<path style="fill:#63638c; stroke:none;" d="M72 129L73 130L72 129z"/>
<path style="fill:#a2fcff; stroke:none;" d="M408 129L409 130L408 129z"/>
<path style="fill:#9c9c97; stroke:none;" d="M40 130L41 131L40 130z"/>
<path style="fill:#8c8c94; stroke:none;" d="M69 130L70 131L69 130z"/>
<path style="fill:#abab9a; stroke:none;" d="M44 131L45 132L44 131z"/>
<path style="fill:#a6a699; stroke:none;" d="M65 131L66 132L65 131z"/>
<path style="fill:#b5b59c; stroke:none;" d="M51.6667 132.333C51.2222 132.778 52.2778 132.722 52.3333 132.667C52.7778 132.222 51.7222 132.278 51.6667 132.333z"/>
<path style="fill:#888893; stroke:none;" d="M53 132C54.5061 132.683 55.3148 132.826 57 133C55.494 132.317 54.6852 132.174 53 132z"/>
<path style="fill:#dcdcb7; stroke:none;" d="M57.6667 132.333C57.2222 132.778 58.2778 132.722 58.3333 132.667C58.7778 132.222 57.7222 132.278 57.6667 132.333z"/>
<path style="fill:#a6fdff; stroke:none;" d="M410 132L411 133L410 132z"/>
<path style="fill:#b9b99d; stroke:none;" d="M102 133L103 134L102 133z"/>
<path style="fill:#2a2a82; stroke:none;" d="M102 134L103 135L102 134z"/>
<path style="fill:#9ffbff; stroke:none;" d="M412 135L413 136L412 135z"/>
<path style="fill:#5c5c8b; stroke:none;" d="M101 136L102 137L101 136z"/>
<path style="fill:#1b1b1b; stroke:none;" d="M101.333 137.667C101.278 137.722 101.222 138.778 101.667 138.333C101.722 138.278 101.778 137.222 101.333 137.667z"/>
<path style="fill:#a1fcff; stroke:none;" d="M414 138L415 139L414 138z"/>
<path style="fill:#828292; stroke:none;" d="M101 139L102 140L101 139z"/>
<path style="fill:#9d9d97; stroke:none;" d="M102 141L103 142L102 141z"/>
<path style="fill:#a5ffff; stroke:none;" d="M416 141L417 142L416 141z"/>
<path style="fill:#a6fdff; stroke:none;" d="M442 141L443 142L442 141z"/>
<path style="fill:#828292; stroke:none;" d="M103 142L104 143L103 142z"/>
<path style="fill:#787890; stroke:none;" d="M104 143L105 144L104 143z"/>
<path style="fill:#272781; stroke:none;" d="M135 143L136 144L135 143z"/>
<path style="fill:#73738f; stroke:none;" d="M105 144L106 145L105 144z"/>
<path style="fill:#2a2a82; stroke:none;" d="M136 144L137 145L136 144z"/>
<path style="fill:#a2fcff; stroke:none;" d="M418 144L419 145L418 144z"/>
<path style="fill:#63638c; stroke:none;" d="M106 145L107 146L106 145z"/>
<path style="fill:#363684; stroke:none;" d="M137 145L138 146L137 145z"/>
<path style="fill:#57578a; stroke:none;" d="M107 146L108 147L107 146z"/>
<path style="fill:#3d3d85; stroke:none;" d="M138 146L139 147L138 146z"/>
<path style="fill:#4e4e88; stroke:none;" d="M108 147L109 148L108 147z"/>
<path style="fill:#515189; stroke:none;" d="M139 147L140 148L139 147z"/>
<path style="fill:#a6ffff; stroke:none;" d="M420 147L421 148L420 147z"/>
<path style="fill:#414186; stroke:none;" d="M109 148L110 149L109 148z"/>
<path style="fill:#515189; stroke:none;" d="M140 148L141 149L140 148z"/>
<path style="fill:#3d3d85; stroke:none;" d="M110 149L111 150L110 149z"/>
<path style="fill:#5d5d8b; stroke:none;" d="M141 149L142 150L141 149z"/>
<path style="fill:#313183; stroke:none;" d="M111 150L112 151L111 150z"/>
<path style="fill:#65658c; stroke:none;" d="M142 150L143 151L142 150z"/>
<path style="fill:#9efbff; stroke:none;" d="M422 150L423 151L422 150z"/>
<path style="fill:#272781; stroke:none;" d="M112 151L113 152L112 151z"/>
<path style="fill:#74748f; stroke:none;" d="M143 151L144 152L143 151z"/>
<path style="fill:#88ebff; stroke:none;" d="M449 151L450 152L449 151z"/>
<path style="fill:#7d7d91; stroke:none;" d="M144 152L145 153L144 152z"/>
<path style="fill:#828292; stroke:none;" d="M145 153L146 154L145 153z"/>
<path style="fill:#8c8c94; stroke:none;" d="M146 154L147 155L146 154z"/>
<path style="fill:#929295; stroke:none;" d="M147 155L148 156L147 155z"/>
<path style="fill:#9d9d97; stroke:none;" d="M148 156L149 157L148 156z"/>
<path style="fill:#a2a298; stroke:none;" d="M149 157L150 158L149 157z"/>
<path style="fill:#acac9a; stroke:none;" d="M150 158L151 159L150 158z"/>
<path style="fill:#b3b39c; stroke:none;" d="M151 159L152 160L151 159z"/>
<path style="fill:#b9b99d; stroke:none;" d="M152 160L153 161L152 160z"/>
<path style="fill:#c2c2a3; stroke:none;" d="M153 161L154 162L153 161z"/>
<path style="fill:#c8c8a9; stroke:none;" d="M154 162L155 163L154 162z"/>
<path style="fill:#979796; stroke:none;" d="M155 163L156 164L155 163z"/>
<path style="fill:#cdcdab; stroke:none;" d="M155 166L156 167L155 166z"/>
<path style="fill:#e0e0bc; stroke:none;" d="M153 168L154 169L153 168z"/>
<path style="fill:#dadab7; stroke:none;" d="M152 169L153 170L152 169z"/>
<path style="fill:#d2d2b0; stroke:none;" d="M151 170L152 171L151 170z"/>
<path style="fill:#c4c4a4; stroke:none;" d="M150 171L151 172L150 171z"/>
<path style="fill:#b9b99d; stroke:none;" d="M149 172L150 173L149 172z"/>
<path style="fill:#abab9a; stroke:none;" d="M148 173L149 174L148 173z"/>
<path style="fill:#a2a298; stroke:none;" d="M147 174L148 175L147 174z"/>
<path style="fill:#9c9c97; stroke:none;" d="M146 175L147 176L146 175z"/>
<path style="fill:#888893; stroke:none;" d="M145 176L146 177L145 176z"/>
<path style="fill:#828292; stroke:none;" d="M144 177L145 178L144 177z"/>
<path style="fill:#777790; stroke:none;" d="M143 178L144 179L143 178z"/>
<path style="fill:#6e6e8e; stroke:none;" d="M142 179L143 180L142 179z"/>
<path style="fill:#b5b59c; stroke:none;" d="M140 180L141 181L140 180z"/>
<path style="fill:#262681; stroke:none;" d="M141 180L142 181L141 180z"/>
</svg>
